<svg xmlns="http://www.w3.org/2000/svg" width="656" height="618" viewBox="0 0 656 618"><rect width="656" height="618" fill="#ffffff"/><g transform="translate(26 26)"><g><rect width="100" height="100" fill="#ffffff" rx="6"/><clipPath id="c0-0"><path d="M23.22 14 C24.38 11.28, 26.80 9.01, 29.11 7.17 C31.43 5.34, 34.29 3.86, 37.12 3.01 C39.95 2.16, 43.15 1.83, 46.09 2.09 C49.03 2.35, 52.13 3.23, 54.77 4.55 C57.41 5.88, 59.97 7.84, 61.93 10.04 C63.89 12.25, 67.83 14.16, 66.55 17.79 C65.27 21.42, 56.15 29.41, 54.26 31.81 C52.37 34.21, 54.91 32.05, 55.24 32.18 C55.56 32.32, 55.88 32.45, 56.20 32.59 C56.52 32.74, 56.84 32.88, 57.15 33.04 C57.46 33.19, 55.49 27.56, 58.08 33.51 C60.67 39.47, 65 57.16, 72.69 68.77 C80.38 80.37, 99.59 96.60, 104.21 103.13 C108.83 109.67, 107.88 110.89, 100.42 107.99 C92.96 105.08, 65.02 90.50, 59.45 85.72 C53.87 80.93, 66.63 79.52, 66.98 79.28 C67.33 79.05, 63.55 82.89, 61.56 84.32 C59.58 85.75, 57.35 86.98, 55.08 87.88 C52.80 88.78, 50.34 89.42, 47.92 89.74 C45.49 90.06, 42.95 90.08, 40.52 89.80 C38.09 89.51, 35.62 88.91, 33.33 88.04 C31.04 87.17, 27.55 90.63, 26.79 84.57 C26.04 78.52, 29.14 57.77, 28.80 51.71 C28.46 45.64, 25.95 49.48, 24.72 48.19 C23.50 46.89, 22.38 45.43, 21.45 43.91 C20.51 42.39, 18.51 40.30, 19.10 39.06 C19.69 37.83, 25.48 36.53, 25 36.50 C24.52 36.47, 18.87 36.57, 16.20 38.90 C13.53 41.23, 8.01 53.07, 9 50.50 C9.99 47.93, 19.75 29.58, 22.12 23.50 C24.49 17.42, 22.05 16.72, 23.22 14 Z"/></clipPath><path d="M23.22 14 C24.38 11.28, 26.80 9.01, 29.11 7.17 C31.43 5.34, 34.29 3.86, 37.12 3.01 C39.95 2.16, 43.15 1.83, 46.09 2.09 C49.03 2.35, 52.13 3.23, 54.77 4.55 C57.41 5.88, 59.97 7.84, 61.93 10.04 C63.89 12.25, 67.83 14.16, 66.55 17.79 C65.27 21.42, 56.15 29.41, 54.26 31.81 C52.37 34.21, 54.91 32.05, 55.24 32.18 C55.56 32.32, 55.88 32.45, 56.20 32.59 C56.52 32.74, 56.84 32.88, 57.15 33.04 C57.46 33.19, 55.49 27.56, 58.08 33.51 C60.67 39.47, 65 57.16, 72.69 68.77 C80.38 80.37, 99.59 96.60, 104.21 103.13 C108.83 109.67, 107.88 110.89, 100.42 107.99 C92.96 105.08, 65.02 90.50, 59.45 85.72 C53.87 80.93, 66.63 79.52, 66.98 79.28 C67.33 79.05, 63.55 82.89, 61.56 84.32 C59.58 85.75, 57.35 86.98, 55.08 87.88 C52.80 88.78, 50.34 89.42, 47.92 89.74 C45.49 90.06, 42.95 90.08, 40.52 89.80 C38.09 89.51, 35.62 88.91, 33.33 88.04 C31.04 87.17, 27.55 90.63, 26.79 84.57 C26.04 78.52, 29.14 57.77, 28.80 51.71 C28.46 45.64, 25.95 49.48, 24.72 48.19 C23.50 46.89, 22.38 45.43, 21.45 43.91 C20.51 42.39, 18.51 40.30, 19.10 39.06 C19.69 37.83, 25.48 36.53, 25 36.50 C24.52 36.47, 18.87 36.57, 16.20 38.90 C13.53 41.23, 8.01 53.07, 9 50.50 C9.99 47.93, 19.75 29.58, 22.12 23.50 C24.49 17.42, 22.05 16.72, 23.22 14 Z" fill="#0a0a0a" fill-rule="evenodd"/><g clip-path="url(#c0-0)"><circle cx="26" cy="44" r="9" fill="#f4794a"/><circle cx="29" cy="78" r="26" fill="#efe9dd"/><ellipse cx="58" cy="56" rx="30" ry="17" fill="#0d9460" transform="rotate(28 58 56)"/></g><circle cx="34" cy="22" r="3.6" fill="#efe9dd"/><g transform="translate(43 41) scale(0.3)"><g transform="rotate(-30 50 50)"><rect x="15" y="24" width="52" height="24" rx="12" fill="#efe9dd"/><rect x="33" y="52" width="52" height="24" rx="12" fill="#0a0a0a"/></g></g><text x="50" y="112" text-anchor="middle" font-family="ui-monospace, monospace" font-size="9" fill="#0a0a0a">cheekR 9</text></g></g><g transform="translate(152 26)"><g><rect width="100" height="100" fill="#ffffff" rx="6"/><clipPath id="c0-1"><path d="M23.22 14 C24.38 11.28, 26.80 9.01, 29.11 7.17 C31.43 5.34, 34.29 3.86, 37.12 3.01 C39.95 2.16, 43.15 1.83, 46.09 2.09 C49.03 2.35, 52.13 3.23, 54.77 4.55 C57.41 5.88, 59.97 7.84, 61.93 10.04 C63.89 12.25, 67.83 14.16, 66.55 17.79 C65.27 21.42, 56.15 29.41, 54.26 31.81 C52.37 34.21, 54.91 32.05, 55.24 32.18 C55.56 32.32, 55.88 32.45, 56.20 32.59 C56.52 32.74, 56.84 32.88, 57.15 33.04 C57.46 33.19, 55.49 27.56, 58.08 33.51 C60.67 39.47, 65 57.16, 72.69 68.77 C80.38 80.37, 99.59 96.60, 104.21 103.13 C108.83 109.67, 107.88 110.89, 100.42 107.99 C92.96 105.08, 65.02 90.50, 59.45 85.72 C53.87 80.93, 66.63 79.52, 66.98 79.28 C67.33 79.05, 63.55 82.89, 61.56 84.32 C59.58 85.75, 57.35 86.98, 55.08 87.88 C52.80 88.78, 50.34 89.42, 47.92 89.74 C45.49 90.06, 42.95 90.08, 40.52 89.80 C38.09 89.51, 35.62 88.91, 33.33 88.04 C31.04 87.17, 27.55 90.63, 26.79 84.57 C26.04 78.52, 29.14 57.77, 28.80 51.71 C28.46 45.64, 25.95 49.48, 24.72 48.19 C23.50 46.89, 22.38 45.43, 21.45 43.91 C20.51 42.39, 18.51 40.30, 19.10 39.06 C19.69 37.83, 25.48 36.53, 25 36.50 C24.52 36.47, 18.87 36.57, 16.20 38.90 C13.53 41.23, 8.01 53.07, 9 50.50 C9.99 47.93, 19.75 29.58, 22.12 23.50 C24.49 17.42, 22.05 16.72, 23.22 14 Z"/></clipPath><path d="M23.22 14 C24.38 11.28, 26.80 9.01, 29.11 7.17 C31.43 5.34, 34.29 3.86, 37.12 3.01 C39.95 2.16, 43.15 1.83, 46.09 2.09 C49.03 2.35, 52.13 3.23, 54.77 4.55 C57.41 5.88, 59.97 7.84, 61.93 10.04 C63.89 12.25, 67.83 14.16, 66.55 17.79 C65.27 21.42, 56.15 29.41, 54.26 31.81 C52.37 34.21, 54.91 32.05, 55.24 32.18 C55.56 32.32, 55.88 32.45, 56.20 32.59 C56.52 32.74, 56.84 32.88, 57.15 33.04 C57.46 33.19, 55.49 27.56, 58.08 33.51 C60.67 39.47, 65 57.16, 72.69 68.77 C80.38 80.37, 99.59 96.60, 104.21 103.13 C108.83 109.67, 107.88 110.89, 100.42 107.99 C92.96 105.08, 65.02 90.50, 59.45 85.72 C53.87 80.93, 66.63 79.52, 66.98 79.28 C67.33 79.05, 63.55 82.89, 61.56 84.32 C59.58 85.75, 57.35 86.98, 55.08 87.88 C52.80 88.78, 50.34 89.42, 47.92 89.74 C45.49 90.06, 42.95 90.08, 40.52 89.80 C38.09 89.51, 35.62 88.91, 33.33 88.04 C31.04 87.17, 27.55 90.63, 26.79 84.57 C26.04 78.52, 29.14 57.77, 28.80 51.71 C28.46 45.64, 25.95 49.48, 24.72 48.19 C23.50 46.89, 22.38 45.43, 21.45 43.91 C20.51 42.39, 18.51 40.30, 19.10 39.06 C19.69 37.83, 25.48 36.53, 25 36.50 C24.52 36.47, 18.87 36.57, 16.20 38.90 C13.53 41.23, 8.01 53.07, 9 50.50 C9.99 47.93, 19.75 29.58, 22.12 23.50 C24.49 17.42, 22.05 16.72, 23.22 14 Z" fill="#0a0a0a" fill-rule="evenodd"/><g clip-path="url(#c0-1)"><circle cx="26" cy="44" r="12" fill="#f4794a"/><circle cx="29" cy="78" r="26" fill="#efe9dd"/><ellipse cx="58" cy="56" rx="30" ry="17" fill="#0d9460" transform="rotate(28 58 56)"/></g><circle cx="34" cy="22" r="3.6" fill="#efe9dd"/><g transform="translate(43 41) scale(0.3)"><g transform="rotate(-30 50 50)"><rect x="15" y="24" width="52" height="24" rx="12" fill="#efe9dd"/><rect x="33" y="52" width="52" height="24" rx="12" fill="#0a0a0a"/></g></g><text x="50" y="112" text-anchor="middle" font-family="ui-monospace, monospace" font-size="9" fill="#0a0a0a">cheekR 12</text></g></g><g transform="translate(278 26)"><g><rect width="100" height="100" fill="#ffffff" rx="6"/><clipPath id="c0-2"><path d="M23.22 14 C24.38 11.28, 26.80 9.01, 29.11 7.17 C31.43 5.34, 34.29 3.86, 37.12 3.01 C39.95 2.16, 43.15 1.83, 46.09 2.09 C49.03 2.35, 52.13 3.23, 54.77 4.55 C57.41 5.88, 59.97 7.84, 61.93 10.04 C63.89 12.25, 67.83 14.16, 66.55 17.79 C65.27 21.42, 56.15 29.41, 54.26 31.81 C52.37 34.21, 54.91 32.05, 55.24 32.18 C55.56 32.32, 55.88 32.45, 56.20 32.59 C56.52 32.74, 56.84 32.88, 57.15 33.04 C57.46 33.19, 55.49 27.56, 58.08 33.51 C60.67 39.47, 65 57.16, 72.69 68.77 C80.38 80.37, 99.59 96.60, 104.21 103.13 C108.83 109.67, 107.88 110.89, 100.42 107.99 C92.96 105.08, 65.02 90.50, 59.45 85.72 C53.87 80.93, 66.63 79.52, 66.98 79.28 C67.33 79.05, 63.55 82.89, 61.56 84.32 C59.58 85.75, 57.35 86.98, 55.08 87.88 C52.80 88.78, 50.34 89.42, 47.92 89.74 C45.49 90.06, 42.95 90.08, 40.52 89.80 C38.09 89.51, 35.62 88.91, 33.33 88.04 C31.04 87.17, 27.55 90.63, 26.79 84.57 C26.04 78.52, 29.14 57.77, 28.80 51.71 C28.46 45.64, 25.95 49.48, 24.72 48.19 C23.50 46.89, 22.38 45.43, 21.45 43.91 C20.51 42.39, 18.51 40.30, 19.10 39.06 C19.69 37.83, 25.48 36.53, 25 36.50 C24.52 36.47, 18.87 36.57, 16.20 38.90 C13.53 41.23, 8.01 53.07, 9 50.50 C9.99 47.93, 19.75 29.58, 22.12 23.50 C24.49 17.42, 22.05 16.72, 23.22 14 Z"/></clipPath><path d="M23.22 14 C24.38 11.28, 26.80 9.01, 29.11 7.17 C31.43 5.34, 34.29 3.86, 37.12 3.01 C39.95 2.16, 43.15 1.83, 46.09 2.09 C49.03 2.35, 52.13 3.23, 54.77 4.55 C57.41 5.88, 59.97 7.84, 61.93 10.04 C63.89 12.25, 67.83 14.16, 66.55 17.79 C65.27 21.42, 56.15 29.41, 54.26 31.81 C52.37 34.21, 54.91 32.05, 55.24 32.18 C55.56 32.32, 55.88 32.45, 56.20 32.59 C56.52 32.74, 56.84 32.88, 57.15 33.04 C57.46 33.19, 55.49 27.56, 58.08 33.51 C60.67 39.47, 65 57.16, 72.69 68.77 C80.38 80.37, 99.59 96.60, 104.21 103.13 C108.83 109.67, 107.88 110.89, 100.42 107.99 C92.96 105.08, 65.02 90.50, 59.45 85.72 C53.87 80.93, 66.63 79.52, 66.98 79.28 C67.33 79.05, 63.55 82.89, 61.56 84.32 C59.58 85.75, 57.35 86.98, 55.08 87.88 C52.80 88.78, 50.34 89.42, 47.92 89.74 C45.49 90.06, 42.95 90.08, 40.52 89.80 C38.09 89.51, 35.62 88.91, 33.33 88.04 C31.04 87.17, 27.55 90.63, 26.79 84.57 C26.04 78.52, 29.14 57.77, 28.80 51.71 C28.46 45.64, 25.95 49.48, 24.72 48.19 C23.50 46.89, 22.38 45.43, 21.45 43.91 C20.51 42.39, 18.51 40.30, 19.10 39.06 C19.69 37.83, 25.48 36.53, 25 36.50 C24.52 36.47, 18.87 36.57, 16.20 38.90 C13.53 41.23, 8.01 53.07, 9 50.50 C9.99 47.93, 19.75 29.58, 22.12 23.50 C24.49 17.42, 22.05 16.72, 23.22 14 Z" fill="#0a0a0a" fill-rule="evenodd"/><g clip-path="url(#c0-2)"><circle cx="26" cy="44" r="15" fill="#f4794a"/><circle cx="29" cy="78" r="26" fill="#efe9dd"/><ellipse cx="58" cy="56" rx="30" ry="17" fill="#0d9460" transform="rotate(28 58 56)"/></g><circle cx="34" cy="22" r="3.6" fill="#efe9dd"/><g transform="translate(43 41) scale(0.3)"><g transform="rotate(-30 50 50)"><rect x="15" y="24" width="52" height="24" rx="12" fill="#efe9dd"/><rect x="33" y="52" width="52" height="24" rx="12" fill="#0a0a0a"/></g></g><text x="50" y="112" text-anchor="middle" font-family="ui-monospace, monospace" font-size="9" fill="#0a0a0a">cheekR 15</text></g></g><g transform="translate(404 26)"><g><rect width="100" height="100" fill="#ffffff" rx="6"/><clipPath id="c0-3"><path d="M23.22 14 C24.38 11.28, 26.80 9.01, 29.11 7.17 C31.43 5.34, 34.29 3.86, 37.12 3.01 C39.95 2.16, 43.15 1.83, 46.09 2.09 C49.03 2.35, 52.13 3.23, 54.77 4.55 C57.41 5.88, 59.97 7.84, 61.93 10.04 C63.89 12.25, 67.83 14.16, 66.55 17.79 C65.27 21.42, 56.15 29.41, 54.26 31.81 C52.37 34.21, 54.91 32.05, 55.24 32.18 C55.56 32.32, 55.88 32.45, 56.20 32.59 C56.52 32.74, 56.84 32.88, 57.15 33.04 C57.46 33.19, 55.49 27.56, 58.08 33.51 C60.67 39.47, 65 57.16, 72.69 68.77 C80.38 80.37, 99.59 96.60, 104.21 103.13 C108.83 109.67, 107.88 110.89, 100.42 107.99 C92.96 105.08, 65.02 90.50, 59.45 85.72 C53.87 80.93, 66.63 79.52, 66.98 79.28 C67.33 79.05, 63.55 82.89, 61.56 84.32 C59.58 85.75, 57.35 86.98, 55.08 87.88 C52.80 88.78, 50.34 89.42, 47.92 89.74 C45.49 90.06, 42.95 90.08, 40.52 89.80 C38.09 89.51, 35.62 88.91, 33.33 88.04 C31.04 87.17, 27.55 90.63, 26.79 84.57 C26.04 78.52, 29.14 57.77, 28.80 51.71 C28.46 45.64, 25.95 49.48, 24.72 48.19 C23.50 46.89, 22.38 45.43, 21.45 43.91 C20.51 42.39, 18.51 40.30, 19.10 39.06 C19.69 37.83, 25.48 36.53, 25 36.50 C24.52 36.47, 18.87 36.57, 16.20 38.90 C13.53 41.23, 8.01 53.07, 9 50.50 C9.99 47.93, 19.75 29.58, 22.12 23.50 C24.49 17.42, 22.05 16.72, 23.22 14 Z"/></clipPath><path d="M23.22 14 C24.38 11.28, 26.80 9.01, 29.11 7.17 C31.43 5.34, 34.29 3.86, 37.12 3.01 C39.95 2.16, 43.15 1.83, 46.09 2.09 C49.03 2.35, 52.13 3.23, 54.77 4.55 C57.41 5.88, 59.97 7.84, 61.93 10.04 C63.89 12.25, 67.83 14.16, 66.55 17.79 C65.27 21.42, 56.15 29.41, 54.26 31.81 C52.37 34.21, 54.91 32.05, 55.24 32.18 C55.56 32.32, 55.88 32.45, 56.20 32.59 C56.52 32.74, 56.84 32.88, 57.15 33.04 C57.46 33.19, 55.49 27.56, 58.08 33.51 C60.67 39.47, 65 57.16, 72.69 68.77 C80.38 80.37, 99.59 96.60, 104.21 103.13 C108.83 109.67, 107.88 110.89, 100.42 107.99 C92.96 105.08, 65.02 90.50, 59.45 85.72 C53.87 80.93, 66.63 79.52, 66.98 79.28 C67.33 79.05, 63.55 82.89, 61.56 84.32 C59.58 85.75, 57.35 86.98, 55.08 87.88 C52.80 88.78, 50.34 89.42, 47.92 89.74 C45.49 90.06, 42.95 90.08, 40.52 89.80 C38.09 89.51, 35.62 88.91, 33.33 88.04 C31.04 87.17, 27.55 90.63, 26.79 84.57 C26.04 78.52, 29.14 57.77, 28.80 51.71 C28.46 45.64, 25.95 49.48, 24.72 48.19 C23.50 46.89, 22.38 45.43, 21.45 43.91 C20.51 42.39, 18.51 40.30, 19.10 39.06 C19.69 37.83, 25.48 36.53, 25 36.50 C24.52 36.47, 18.87 36.57, 16.20 38.90 C13.53 41.23, 8.01 53.07, 9 50.50 C9.99 47.93, 19.75 29.58, 22.12 23.50 C24.49 17.42, 22.05 16.72, 23.22 14 Z" fill="#0a0a0a" fill-rule="evenodd"/><g clip-path="url(#c0-3)"><circle cx="26" cy="44" r="18" fill="#f4794a"/><circle cx="29" cy="78" r="26" fill="#efe9dd"/><ellipse cx="58" cy="56" rx="30" ry="17" fill="#0d9460" transform="rotate(28 58 56)"/></g><circle cx="34" cy="22" r="3.6" fill="#efe9dd"/><g transform="translate(43 41) scale(0.3)"><g transform="rotate(-30 50 50)"><rect x="15" y="24" width="52" height="24" rx="12" fill="#efe9dd"/><rect x="33" y="52" width="52" height="24" rx="12" fill="#0a0a0a"/></g></g><text x="50" y="112" text-anchor="middle" font-family="ui-monospace, monospace" font-size="9" fill="#0a0a0a">cheekR 18</text></g></g><g transform="translate(530 26)"><g><rect width="100" height="100" fill="#ffffff" rx="6"/><clipPath id="c0-4"><path d="M23.22 14 C24.38 11.28, 26.80 9.01, 29.11 7.17 C31.43 5.34, 34.29 3.86, 37.12 3.01 C39.95 2.16, 43.15 1.83, 46.09 2.09 C49.03 2.35, 52.13 3.23, 54.77 4.55 C57.41 5.88, 59.97 7.84, 61.93 10.04 C63.89 12.25, 67.83 14.16, 66.55 17.79 C65.27 21.42, 56.15 29.41, 54.26 31.81 C52.37 34.21, 54.91 32.05, 55.24 32.18 C55.56 32.32, 55.88 32.45, 56.20 32.59 C56.52 32.74, 56.84 32.88, 57.15 33.04 C57.46 33.19, 55.49 27.56, 58.08 33.51 C60.67 39.47, 65 57.16, 72.69 68.77 C80.38 80.37, 99.59 96.60, 104.21 103.13 C108.83 109.67, 107.88 110.89, 100.42 107.99 C92.96 105.08, 65.02 90.50, 59.45 85.72 C53.87 80.93, 66.63 79.52, 66.98 79.28 C67.33 79.05, 63.55 82.89, 61.56 84.32 C59.58 85.75, 57.35 86.98, 55.08 87.88 C52.80 88.78, 50.34 89.42, 47.92 89.74 C45.49 90.06, 42.95 90.08, 40.52 89.80 C38.09 89.51, 35.62 88.91, 33.33 88.04 C31.04 87.17, 27.55 90.63, 26.79 84.57 C26.04 78.52, 29.14 57.77, 28.80 51.71 C28.46 45.64, 25.95 49.48, 24.72 48.19 C23.50 46.89, 22.38 45.43, 21.45 43.91 C20.51 42.39, 18.51 40.30, 19.10 39.06 C19.69 37.83, 25.48 36.53, 25 36.50 C24.52 36.47, 18.87 36.57, 16.20 38.90 C13.53 41.23, 8.01 53.07, 9 50.50 C9.99 47.93, 19.75 29.58, 22.12 23.50 C24.49 17.42, 22.05 16.72, 23.22 14 Z"/></clipPath><path d="M23.22 14 C24.38 11.28, 26.80 9.01, 29.11 7.17 C31.43 5.34, 34.29 3.86, 37.12 3.01 C39.95 2.16, 43.15 1.83, 46.09 2.09 C49.03 2.35, 52.13 3.23, 54.77 4.55 C57.41 5.88, 59.97 7.84, 61.93 10.04 C63.89 12.25, 67.83 14.16, 66.55 17.79 C65.27 21.42, 56.15 29.41, 54.26 31.81 C52.37 34.21, 54.91 32.05, 55.24 32.18 C55.56 32.32, 55.88 32.45, 56.20 32.59 C56.52 32.74, 56.84 32.88, 57.15 33.04 C57.46 33.19, 55.49 27.56, 58.08 33.51 C60.67 39.47, 65 57.16, 72.69 68.77 C80.38 80.37, 99.59 96.60, 104.21 103.13 C108.83 109.67, 107.88 110.89, 100.42 107.99 C92.96 105.08, 65.02 90.50, 59.45 85.72 C53.87 80.93, 66.63 79.52, 66.98 79.28 C67.33 79.05, 63.55 82.89, 61.56 84.32 C59.58 85.75, 57.35 86.98, 55.08 87.88 C52.80 88.78, 50.34 89.42, 47.92 89.74 C45.49 90.06, 42.95 90.08, 40.52 89.80 C38.09 89.51, 35.62 88.91, 33.33 88.04 C31.04 87.17, 27.55 90.63, 26.79 84.57 C26.04 78.52, 29.14 57.77, 28.80 51.71 C28.46 45.64, 25.95 49.48, 24.72 48.19 C23.50 46.89, 22.38 45.43, 21.45 43.91 C20.51 42.39, 18.51 40.30, 19.10 39.06 C19.69 37.83, 25.48 36.53, 25 36.50 C24.52 36.47, 18.87 36.57, 16.20 38.90 C13.53 41.23, 8.01 53.07, 9 50.50 C9.99 47.93, 19.75 29.58, 22.12 23.50 C24.49 17.42, 22.05 16.72, 23.22 14 Z" fill="#0a0a0a" fill-rule="evenodd"/><g clip-path="url(#c0-4)"><circle cx="26" cy="44" r="21" fill="#f4794a"/><circle cx="29" cy="78" r="26" fill="#efe9dd"/><ellipse cx="58" cy="56" rx="30" ry="17" fill="#0d9460" transform="rotate(28 58 56)"/></g><circle cx="34" cy="22" r="3.6" fill="#efe9dd"/><g transform="translate(43 41) scale(0.3)"><g transform="rotate(-30 50 50)"><rect x="15" y="24" width="52" height="24" rx="12" fill="#efe9dd"/><rect x="33" y="52" width="52" height="24" rx="12" fill="#0a0a0a"/></g></g><text x="50" y="112" text-anchor="middle" font-family="ui-monospace, monospace" font-size="9" fill="#0a0a0a">cheekR 21</text></g></g><g transform="translate(26 174)"><g><rect width="100" height="100" fill="#ffffff" rx="6"/><clipPath id="c1-0"><path d="M23.22 14 C24.38 11.28, 26.80 9.01, 29.11 7.17 C31.43 5.34, 34.29 3.86, 37.12 3.01 C39.95 2.16, 43.15 1.83, 46.09 2.09 C49.03 2.35, 52.13 3.23, 54.77 4.55 C57.41 5.88, 59.97 7.84, 61.93 10.04 C63.89 12.25, 67.83 14.16, 66.55 17.79 C65.27 21.42, 56.15 29.41, 54.26 31.81 C52.37 34.21, 54.91 32.05, 55.24 32.18 C55.56 32.32, 55.88 32.45, 56.20 32.59 C56.52 32.74, 56.84 32.88, 57.15 33.04 C57.46 33.19, 55.49 27.56, 58.08 33.51 C60.67 39.47, 65 57.16, 72.69 68.77 C80.38 80.37, 99.59 96.60, 104.21 103.13 C108.83 109.67, 107.88 110.89, 100.42 107.99 C92.96 105.08, 65.02 90.50, 59.45 85.72 C53.87 80.93, 66.63 79.52, 66.98 79.28 C67.33 79.05, 63.55 82.89, 61.56 84.32 C59.58 85.75, 57.35 86.98, 55.08 87.88 C52.80 88.78, 50.34 89.42, 47.92 89.74 C45.49 90.06, 42.95 90.08, 40.52 89.80 C38.09 89.51, 35.62 88.91, 33.33 88.04 C31.04 87.17, 27.55 90.63, 26.79 84.57 C26.04 78.52, 29.14 57.77, 28.80 51.71 C28.46 45.64, 25.95 49.48, 24.72 48.19 C23.50 46.89, 22.38 45.43, 21.45 43.91 C20.51 42.39, 18.51 40.30, 19.10 39.06 C19.69 37.83, 25.48 36.53, 25 36.50 C24.52 36.47, 18.87 36.57, 16.20 38.90 C13.53 41.23, 8.01 53.07, 9 50.50 C9.99 47.93, 19.75 29.58, 22.12 23.50 C24.49 17.42, 22.05 16.72, 23.22 14 Z"/></clipPath><path d="M23.22 14 C24.38 11.28, 26.80 9.01, 29.11 7.17 C31.43 5.34, 34.29 3.86, 37.12 3.01 C39.95 2.16, 43.15 1.83, 46.09 2.09 C49.03 2.35, 52.13 3.23, 54.77 4.55 C57.41 5.88, 59.97 7.84, 61.93 10.04 C63.89 12.25, 67.83 14.16, 66.55 17.79 C65.27 21.42, 56.15 29.41, 54.26 31.81 C52.37 34.21, 54.91 32.05, 55.24 32.18 C55.56 32.32, 55.88 32.45, 56.20 32.59 C56.52 32.74, 56.84 32.88, 57.15 33.04 C57.46 33.19, 55.49 27.56, 58.08 33.51 C60.67 39.47, 65 57.16, 72.69 68.77 C80.38 80.37, 99.59 96.60, 104.21 103.13 C108.83 109.67, 107.88 110.89, 100.42 107.99 C92.96 105.08, 65.02 90.50, 59.45 85.72 C53.87 80.93, 66.63 79.52, 66.98 79.28 C67.33 79.05, 63.55 82.89, 61.56 84.32 C59.58 85.75, 57.35 86.98, 55.08 87.88 C52.80 88.78, 50.34 89.42, 47.92 89.74 C45.49 90.06, 42.95 90.08, 40.52 89.80 C38.09 89.51, 35.62 88.91, 33.33 88.04 C31.04 87.17, 27.55 90.63, 26.79 84.57 C26.04 78.52, 29.14 57.77, 28.80 51.71 C28.46 45.64, 25.95 49.48, 24.72 48.19 C23.50 46.89, 22.38 45.43, 21.45 43.91 C20.51 42.39, 18.51 40.30, 19.10 39.06 C19.69 37.83, 25.48 36.53, 25 36.50 C24.52 36.47, 18.87 36.57, 16.20 38.90 C13.53 41.23, 8.01 53.07, 9 50.50 C9.99 47.93, 19.75 29.58, 22.12 23.50 C24.49 17.42, 22.05 16.72, 23.22 14 Z" fill="#0a0a0a" fill-rule="evenodd"/><g clip-path="url(#c1-0)"><circle cx="26" cy="44" r="15" fill="#f4794a"/><circle cx="29" cy="78" r="18" fill="#efe9dd"/><ellipse cx="58" cy="56" rx="30" ry="17" fill="#0d9460" transform="rotate(28 58 56)"/></g><circle cx="34" cy="22" r="3.6" fill="#efe9dd"/><g transform="translate(43 41) scale(0.3)"><g transform="rotate(-30 50 50)"><rect x="15" y="24" width="52" height="24" rx="12" fill="#efe9dd"/><rect x="33" y="52" width="52" height="24" rx="12" fill="#0a0a0a"/></g></g><text x="50" y="112" text-anchor="middle" font-family="ui-monospace, monospace" font-size="9" fill="#0a0a0a">bellyR 18</text></g></g><g transform="translate(152 174)"><g><rect width="100" height="100" fill="#ffffff" rx="6"/><clipPath id="c1-1"><path d="M23.22 14 C24.38 11.28, 26.80 9.01, 29.11 7.17 C31.43 5.34, 34.29 3.86, 37.12 3.01 C39.95 2.16, 43.15 1.83, 46.09 2.09 C49.03 2.35, 52.13 3.23, 54.77 4.55 C57.41 5.88, 59.97 7.84, 61.93 10.04 C63.89 12.25, 67.83 14.16, 66.55 17.79 C65.27 21.42, 56.15 29.41, 54.26 31.81 C52.37 34.21, 54.91 32.05, 55.24 32.18 C55.56 32.32, 55.88 32.45, 56.20 32.59 C56.52 32.74, 56.84 32.88, 57.15 33.04 C57.46 33.19, 55.49 27.56, 58.08 33.51 C60.67 39.47, 65 57.16, 72.69 68.77 C80.38 80.37, 99.59 96.60, 104.21 103.13 C108.83 109.67, 107.88 110.89, 100.42 107.99 C92.96 105.08, 65.02 90.50, 59.45 85.72 C53.87 80.93, 66.63 79.52, 66.98 79.28 C67.33 79.05, 63.55 82.89, 61.56 84.32 C59.58 85.75, 57.35 86.98, 55.08 87.88 C52.80 88.78, 50.34 89.42, 47.92 89.74 C45.49 90.06, 42.95 90.08, 40.52 89.80 C38.09 89.51, 35.62 88.91, 33.33 88.04 C31.04 87.17, 27.55 90.63, 26.79 84.57 C26.04 78.52, 29.14 57.77, 28.80 51.71 C28.46 45.64, 25.95 49.48, 24.72 48.19 C23.50 46.89, 22.38 45.43, 21.45 43.91 C20.51 42.39, 18.51 40.30, 19.10 39.06 C19.69 37.83, 25.48 36.53, 25 36.50 C24.52 36.47, 18.87 36.57, 16.20 38.90 C13.53 41.23, 8.01 53.07, 9 50.50 C9.99 47.93, 19.75 29.58, 22.12 23.50 C24.49 17.42, 22.05 16.72, 23.22 14 Z"/></clipPath><path d="M23.22 14 C24.38 11.28, 26.80 9.01, 29.11 7.17 C31.43 5.34, 34.29 3.86, 37.12 3.01 C39.95 2.16, 43.15 1.83, 46.09 2.09 C49.03 2.35, 52.13 3.23, 54.77 4.55 C57.41 5.88, 59.97 7.84, 61.93 10.04 C63.89 12.25, 67.83 14.16, 66.55 17.79 C65.27 21.42, 56.15 29.41, 54.26 31.81 C52.37 34.21, 54.91 32.05, 55.24 32.18 C55.56 32.32, 55.88 32.45, 56.20 32.59 C56.52 32.74, 56.84 32.88, 57.15 33.04 C57.46 33.19, 55.49 27.56, 58.08 33.51 C60.67 39.47, 65 57.16, 72.69 68.77 C80.38 80.37, 99.59 96.60, 104.21 103.13 C108.83 109.67, 107.88 110.89, 100.42 107.99 C92.96 105.08, 65.02 90.50, 59.45 85.72 C53.87 80.93, 66.63 79.52, 66.98 79.28 C67.33 79.05, 63.55 82.89, 61.56 84.32 C59.58 85.75, 57.35 86.98, 55.08 87.88 C52.80 88.78, 50.34 89.42, 47.92 89.74 C45.49 90.06, 42.95 90.08, 40.52 89.80 C38.09 89.51, 35.62 88.91, 33.33 88.04 C31.04 87.17, 27.55 90.63, 26.79 84.57 C26.04 78.52, 29.14 57.77, 28.80 51.71 C28.46 45.64, 25.95 49.48, 24.72 48.19 C23.50 46.89, 22.38 45.43, 21.45 43.91 C20.51 42.39, 18.51 40.30, 19.10 39.06 C19.69 37.83, 25.48 36.53, 25 36.50 C24.52 36.47, 18.87 36.57, 16.20 38.90 C13.53 41.23, 8.01 53.07, 9 50.50 C9.99 47.93, 19.75 29.58, 22.12 23.50 C24.49 17.42, 22.05 16.72, 23.22 14 Z" fill="#0a0a0a" fill-rule="evenodd"/><g clip-path="url(#c1-1)"><circle cx="26" cy="44" r="15" fill="#f4794a"/><circle cx="29" cy="78" r="22" fill="#efe9dd"/><ellipse cx="58" cy="56" rx="30" ry="17" fill="#0d9460" transform="rotate(28 58 56)"/></g><circle cx="34" cy="22" r="3.6" fill="#efe9dd"/><g transform="translate(43 41) scale(0.3)"><g transform="rotate(-30 50 50)"><rect x="15" y="24" width="52" height="24" rx="12" fill="#efe9dd"/><rect x="33" y="52" width="52" height="24" rx="12" fill="#0a0a0a"/></g></g><text x="50" y="112" text-anchor="middle" font-family="ui-monospace, monospace" font-size="9" fill="#0a0a0a">bellyR 22</text></g></g><g transform="translate(278 174)"><g><rect width="100" height="100" fill="#ffffff" rx="6"/><clipPath id="c1-2"><path d="M23.22 14 C24.38 11.28, 26.80 9.01, 29.11 7.17 C31.43 5.34, 34.29 3.86, 37.12 3.01 C39.95 2.16, 43.15 1.83, 46.09 2.09 C49.03 2.35, 52.13 3.23, 54.77 4.55 C57.41 5.88, 59.97 7.84, 61.93 10.04 C63.89 12.25, 67.83 14.16, 66.55 17.79 C65.27 21.42, 56.15 29.41, 54.26 31.81 C52.37 34.21, 54.91 32.05, 55.24 32.18 C55.56 32.32, 55.88 32.45, 56.20 32.59 C56.52 32.74, 56.84 32.88, 57.15 33.04 C57.46 33.19, 55.49 27.56, 58.08 33.51 C60.67 39.47, 65 57.16, 72.69 68.77 C80.38 80.37, 99.59 96.60, 104.21 103.13 C108.83 109.67, 107.88 110.89, 100.42 107.99 C92.96 105.08, 65.02 90.50, 59.45 85.72 C53.87 80.93, 66.63 79.52, 66.98 79.28 C67.33 79.05, 63.55 82.89, 61.56 84.32 C59.58 85.75, 57.35 86.98, 55.08 87.88 C52.80 88.78, 50.34 89.42, 47.92 89.74 C45.49 90.06, 42.95 90.08, 40.52 89.80 C38.09 89.51, 35.62 88.91, 33.33 88.04 C31.04 87.17, 27.55 90.63, 26.79 84.57 C26.04 78.52, 29.14 57.77, 28.80 51.71 C28.46 45.64, 25.95 49.48, 24.72 48.19 C23.50 46.89, 22.38 45.43, 21.45 43.91 C20.51 42.39, 18.51 40.30, 19.10 39.06 C19.69 37.83, 25.48 36.53, 25 36.50 C24.52 36.47, 18.87 36.57, 16.20 38.90 C13.53 41.23, 8.01 53.07, 9 50.50 C9.99 47.93, 19.75 29.58, 22.12 23.50 C24.49 17.42, 22.05 16.72, 23.22 14 Z"/></clipPath><path d="M23.22 14 C24.38 11.28, 26.80 9.01, 29.11 7.17 C31.43 5.34, 34.29 3.86, 37.12 3.01 C39.95 2.16, 43.15 1.83, 46.09 2.09 C49.03 2.35, 52.13 3.23, 54.77 4.55 C57.41 5.88, 59.97 7.84, 61.93 10.04 C63.89 12.25, 67.83 14.16, 66.55 17.79 C65.27 21.42, 56.15 29.41, 54.26 31.81 C52.37 34.21, 54.91 32.05, 55.24 32.18 C55.56 32.32, 55.88 32.45, 56.20 32.59 C56.52 32.74, 56.84 32.88, 57.15 33.04 C57.46 33.19, 55.49 27.56, 58.08 33.51 C60.67 39.47, 65 57.16, 72.69 68.77 C80.38 80.37, 99.59 96.60, 104.21 103.13 C108.83 109.67, 107.88 110.89, 100.42 107.99 C92.96 105.08, 65.02 90.50, 59.45 85.72 C53.87 80.93, 66.63 79.52, 66.98 79.28 C67.33 79.05, 63.55 82.89, 61.56 84.32 C59.58 85.75, 57.35 86.98, 55.08 87.88 C52.80 88.78, 50.34 89.42, 47.92 89.74 C45.49 90.06, 42.95 90.08, 40.52 89.80 C38.09 89.51, 35.62 88.91, 33.33 88.04 C31.04 87.17, 27.55 90.63, 26.79 84.57 C26.04 78.52, 29.14 57.77, 28.80 51.71 C28.46 45.64, 25.95 49.48, 24.72 48.19 C23.50 46.89, 22.38 45.43, 21.45 43.91 C20.51 42.39, 18.51 40.30, 19.10 39.06 C19.69 37.83, 25.48 36.53, 25 36.50 C24.52 36.47, 18.87 36.57, 16.20 38.90 C13.53 41.23, 8.01 53.07, 9 50.50 C9.99 47.93, 19.75 29.58, 22.12 23.50 C24.49 17.42, 22.05 16.72, 23.22 14 Z" fill="#0a0a0a" fill-rule="evenodd"/><g clip-path="url(#c1-2)"><circle cx="26" cy="44" r="15" fill="#f4794a"/><circle cx="29" cy="78" r="26" fill="#efe9dd"/><ellipse cx="58" cy="56" rx="30" ry="17" fill="#0d9460" transform="rotate(28 58 56)"/></g><circle cx="34" cy="22" r="3.6" fill="#efe9dd"/><g transform="translate(43 41) scale(0.3)"><g transform="rotate(-30 50 50)"><rect x="15" y="24" width="52" height="24" rx="12" fill="#efe9dd"/><rect x="33" y="52" width="52" height="24" rx="12" fill="#0a0a0a"/></g></g><text x="50" y="112" text-anchor="middle" font-family="ui-monospace, monospace" font-size="9" fill="#0a0a0a">bellyR 26</text></g></g><g transform="translate(404 174)"><g><rect width="100" height="100" fill="#ffffff" rx="6"/><clipPath id="c1-3"><path d="M23.22 14 C24.38 11.28, 26.80 9.01, 29.11 7.17 C31.43 5.34, 34.29 3.86, 37.12 3.01 C39.95 2.16, 43.15 1.83, 46.09 2.09 C49.03 2.35, 52.13 3.23, 54.77 4.55 C57.41 5.88, 59.97 7.84, 61.93 10.04 C63.89 12.25, 67.83 14.16, 66.55 17.79 C65.27 21.42, 56.15 29.41, 54.26 31.81 C52.37 34.21, 54.91 32.05, 55.24 32.18 C55.56 32.32, 55.88 32.45, 56.20 32.59 C56.52 32.74, 56.84 32.88, 57.15 33.04 C57.46 33.19, 55.49 27.56, 58.08 33.51 C60.67 39.47, 65 57.16, 72.69 68.77 C80.38 80.37, 99.59 96.60, 104.21 103.13 C108.83 109.67, 107.88 110.89, 100.42 107.99 C92.96 105.08, 65.02 90.50, 59.45 85.72 C53.87 80.93, 66.63 79.52, 66.98 79.28 C67.33 79.05, 63.55 82.89, 61.56 84.32 C59.58 85.75, 57.35 86.98, 55.08 87.88 C52.80 88.78, 50.34 89.42, 47.92 89.74 C45.49 90.06, 42.95 90.08, 40.52 89.80 C38.09 89.51, 35.62 88.91, 33.33 88.04 C31.04 87.17, 27.55 90.63, 26.79 84.57 C26.04 78.52, 29.14 57.77, 28.80 51.71 C28.46 45.64, 25.95 49.48, 24.72 48.19 C23.50 46.89, 22.38 45.43, 21.45 43.91 C20.51 42.39, 18.51 40.30, 19.10 39.06 C19.69 37.83, 25.48 36.53, 25 36.50 C24.52 36.47, 18.87 36.57, 16.20 38.90 C13.53 41.23, 8.01 53.07, 9 50.50 C9.99 47.93, 19.75 29.58, 22.12 23.50 C24.49 17.42, 22.05 16.72, 23.22 14 Z"/></clipPath><path d="M23.22 14 C24.38 11.28, 26.80 9.01, 29.11 7.17 C31.43 5.34, 34.29 3.86, 37.12 3.01 C39.95 2.16, 43.15 1.83, 46.09 2.09 C49.03 2.35, 52.13 3.23, 54.77 4.55 C57.41 5.88, 59.97 7.84, 61.93 10.04 C63.89 12.25, 67.83 14.16, 66.55 17.79 C65.27 21.42, 56.15 29.41, 54.26 31.81 C52.37 34.21, 54.91 32.05, 55.24 32.18 C55.56 32.32, 55.88 32.45, 56.20 32.59 C56.52 32.74, 56.84 32.88, 57.15 33.04 C57.46 33.19, 55.49 27.56, 58.08 33.51 C60.67 39.47, 65 57.16, 72.69 68.77 C80.38 80.37, 99.59 96.60, 104.21 103.13 C108.83 109.67, 107.88 110.89, 100.42 107.99 C92.96 105.08, 65.02 90.50, 59.45 85.72 C53.87 80.93, 66.63 79.52, 66.98 79.28 C67.33 79.05, 63.55 82.89, 61.56 84.32 C59.58 85.75, 57.35 86.98, 55.08 87.88 C52.80 88.78, 50.34 89.42, 47.92 89.74 C45.49 90.06, 42.95 90.08, 40.52 89.80 C38.09 89.51, 35.62 88.91, 33.33 88.04 C31.04 87.17, 27.55 90.63, 26.79 84.57 C26.04 78.52, 29.14 57.77, 28.80 51.71 C28.46 45.64, 25.95 49.48, 24.72 48.19 C23.50 46.89, 22.38 45.43, 21.45 43.91 C20.51 42.39, 18.51 40.30, 19.10 39.06 C19.69 37.83, 25.48 36.53, 25 36.50 C24.52 36.47, 18.87 36.57, 16.20 38.90 C13.53 41.23, 8.01 53.07, 9 50.50 C9.99 47.93, 19.75 29.58, 22.12 23.50 C24.49 17.42, 22.05 16.72, 23.22 14 Z" fill="#0a0a0a" fill-rule="evenodd"/><g clip-path="url(#c1-3)"><circle cx="26" cy="44" r="15" fill="#f4794a"/><circle cx="29" cy="78" r="30" fill="#efe9dd"/><ellipse cx="58" cy="56" rx="30" ry="17" fill="#0d9460" transform="rotate(28 58 56)"/></g><circle cx="34" cy="22" r="3.6" fill="#efe9dd"/><g transform="translate(43 41) scale(0.3)"><g transform="rotate(-30 50 50)"><rect x="15" y="24" width="52" height="24" rx="12" fill="#efe9dd"/><rect x="33" y="52" width="52" height="24" rx="12" fill="#0a0a0a"/></g></g><text x="50" y="112" text-anchor="middle" font-family="ui-monospace, monospace" font-size="9" fill="#0a0a0a">bellyR 30</text></g></g><g transform="translate(530 174)"><g><rect width="100" height="100" fill="#ffffff" rx="6"/><clipPath id="c1-4"><path d="M23.22 14 C24.38 11.28, 26.80 9.01, 29.11 7.17 C31.43 5.34, 34.29 3.86, 37.12 3.01 C39.95 2.16, 43.15 1.83, 46.09 2.09 C49.03 2.35, 52.13 3.23, 54.77 4.55 C57.41 5.88, 59.97 7.84, 61.93 10.04 C63.89 12.25, 67.83 14.16, 66.55 17.79 C65.27 21.42, 56.15 29.41, 54.26 31.81 C52.37 34.21, 54.91 32.05, 55.24 32.18 C55.56 32.32, 55.88 32.45, 56.20 32.59 C56.52 32.74, 56.84 32.88, 57.15 33.04 C57.46 33.19, 55.49 27.56, 58.08 33.51 C60.67 39.47, 65 57.16, 72.69 68.77 C80.38 80.37, 99.59 96.60, 104.21 103.13 C108.83 109.67, 107.88 110.89, 100.42 107.99 C92.96 105.08, 65.02 90.50, 59.45 85.72 C53.87 80.93, 66.63 79.52, 66.98 79.28 C67.33 79.05, 63.55 82.89, 61.56 84.32 C59.58 85.75, 57.35 86.98, 55.08 87.88 C52.80 88.78, 50.34 89.42, 47.92 89.74 C45.49 90.06, 42.95 90.08, 40.52 89.80 C38.09 89.51, 35.62 88.91, 33.33 88.04 C31.04 87.17, 27.55 90.63, 26.79 84.57 C26.04 78.52, 29.14 57.77, 28.80 51.71 C28.46 45.64, 25.95 49.48, 24.72 48.19 C23.50 46.89, 22.38 45.43, 21.45 43.91 C20.51 42.39, 18.51 40.30, 19.10 39.06 C19.69 37.83, 25.48 36.53, 25 36.50 C24.52 36.47, 18.87 36.57, 16.20 38.90 C13.53 41.23, 8.01 53.07, 9 50.50 C9.99 47.93, 19.75 29.58, 22.12 23.50 C24.49 17.42, 22.05 16.72, 23.22 14 Z"/></clipPath><path d="M23.22 14 C24.38 11.28, 26.80 9.01, 29.11 7.17 C31.43 5.34, 34.29 3.86, 37.12 3.01 C39.95 2.16, 43.15 1.83, 46.09 2.09 C49.03 2.35, 52.13 3.23, 54.77 4.55 C57.41 5.88, 59.97 7.84, 61.93 10.04 C63.89 12.25, 67.83 14.16, 66.55 17.79 C65.27 21.42, 56.15 29.41, 54.26 31.81 C52.37 34.21, 54.91 32.05, 55.24 32.18 C55.56 32.32, 55.88 32.45, 56.20 32.59 C56.52 32.74, 56.84 32.88, 57.15 33.04 C57.46 33.19, 55.49 27.56, 58.08 33.51 C60.67 39.47, 65 57.16, 72.69 68.77 C80.38 80.37, 99.59 96.60, 104.21 103.13 C108.83 109.67, 107.88 110.89, 100.42 107.99 C92.96 105.08, 65.02 90.50, 59.45 85.72 C53.87 80.93, 66.63 79.52, 66.98 79.28 C67.33 79.05, 63.55 82.89, 61.56 84.32 C59.58 85.75, 57.35 86.98, 55.08 87.88 C52.80 88.78, 50.34 89.42, 47.92 89.74 C45.49 90.06, 42.95 90.08, 40.52 89.80 C38.09 89.51, 35.62 88.91, 33.33 88.04 C31.04 87.17, 27.55 90.63, 26.79 84.57 C26.04 78.52, 29.14 57.77, 28.80 51.71 C28.46 45.64, 25.95 49.48, 24.72 48.19 C23.50 46.89, 22.38 45.43, 21.45 43.91 C20.51 42.39, 18.51 40.30, 19.10 39.06 C19.69 37.83, 25.48 36.53, 25 36.50 C24.52 36.47, 18.87 36.57, 16.20 38.90 C13.53 41.23, 8.01 53.07, 9 50.50 C9.99 47.93, 19.75 29.58, 22.12 23.50 C24.49 17.42, 22.05 16.72, 23.22 14 Z" fill="#0a0a0a" fill-rule="evenodd"/><g clip-path="url(#c1-4)"><circle cx="26" cy="44" r="15" fill="#f4794a"/><circle cx="29" cy="78" r="34" fill="#efe9dd"/><ellipse cx="58" cy="56" rx="30" ry="17" fill="#0d9460" transform="rotate(28 58 56)"/></g><circle cx="34" cy="22" r="3.6" fill="#efe9dd"/><g transform="translate(43 41) scale(0.3)"><g transform="rotate(-30 50 50)"><rect x="15" y="24" width="52" height="24" rx="12" fill="#efe9dd"/><rect x="33" y="52" width="52" height="24" rx="12" fill="#0a0a0a"/></g></g><text x="50" y="112" text-anchor="middle" font-family="ui-monospace, monospace" font-size="9" fill="#0a0a0a">bellyR 34</text></g></g><g transform="translate(26 322)"><g><rect width="100" height="100" fill="#ffffff" rx="6"/><clipPath id="c2-0"><path d="M23.22 14 C24.38 11.28, 26.80 9.01, 29.11 7.17 C31.43 5.34, 34.29 3.86, 37.12 3.01 C39.95 2.16, 43.15 1.83, 46.09 2.09 C49.03 2.35, 52.13 3.23, 54.77 4.55 C57.41 5.88, 59.97 7.84, 61.93 10.04 C63.89 12.25, 67.83 14.16, 66.55 17.79 C65.27 21.42, 56.15 29.41, 54.26 31.81 C52.37 34.21, 54.91 32.05, 55.24 32.18 C55.56 32.32, 55.88 32.45, 56.20 32.59 C56.52 32.74, 56.84 32.88, 57.15 33.04 C57.46 33.19, 55.49 27.56, 58.08 33.51 C60.67 39.47, 65 57.16, 72.69 68.77 C80.38 80.37, 99.59 96.60, 104.21 103.13 C108.83 109.67, 107.88 110.89, 100.42 107.99 C92.96 105.08, 65.02 90.50, 59.45 85.72 C53.87 80.93, 66.63 79.52, 66.98 79.28 C67.33 79.05, 63.55 82.89, 61.56 84.32 C59.58 85.75, 57.35 86.98, 55.08 87.88 C52.80 88.78, 50.34 89.42, 47.92 89.74 C45.49 90.06, 42.95 90.08, 40.52 89.80 C38.09 89.51, 35.62 88.91, 33.33 88.04 C31.04 87.17, 27.55 90.63, 26.79 84.57 C26.04 78.52, 29.14 57.77, 28.80 51.71 C28.46 45.64, 25.95 49.48, 24.72 48.19 C23.50 46.89, 22.38 45.43, 21.45 43.91 C20.51 42.39, 18.51 40.30, 19.10 39.06 C19.69 37.83, 25.48 36.53, 25 36.50 C24.52 36.47, 18.87 36.57, 16.20 38.90 C13.53 41.23, 8.01 53.07, 9 50.50 C9.99 47.93, 19.75 29.58, 22.12 23.50 C24.49 17.42, 22.05 16.72, 23.22 14 Z"/></clipPath><path d="M23.22 14 C24.38 11.28, 26.80 9.01, 29.11 7.17 C31.43 5.34, 34.29 3.86, 37.12 3.01 C39.95 2.16, 43.15 1.83, 46.09 2.09 C49.03 2.35, 52.13 3.23, 54.77 4.55 C57.41 5.88, 59.97 7.84, 61.93 10.04 C63.89 12.25, 67.83 14.16, 66.55 17.79 C65.27 21.42, 56.15 29.41, 54.26 31.81 C52.37 34.21, 54.91 32.05, 55.24 32.18 C55.56 32.32, 55.88 32.45, 56.20 32.59 C56.52 32.74, 56.84 32.88, 57.15 33.04 C57.46 33.19, 55.49 27.56, 58.08 33.51 C60.67 39.47, 65 57.16, 72.69 68.77 C80.38 80.37, 99.59 96.60, 104.21 103.13 C108.83 109.67, 107.88 110.89, 100.42 107.99 C92.96 105.08, 65.02 90.50, 59.45 85.72 C53.87 80.93, 66.63 79.52, 66.98 79.28 C67.33 79.05, 63.55 82.89, 61.56 84.32 C59.58 85.75, 57.35 86.98, 55.08 87.88 C52.80 88.78, 50.34 89.42, 47.92 89.74 C45.49 90.06, 42.95 90.08, 40.52 89.80 C38.09 89.51, 35.62 88.91, 33.33 88.04 C31.04 87.17, 27.55 90.63, 26.79 84.57 C26.04 78.52, 29.14 57.77, 28.80 51.71 C28.46 45.64, 25.95 49.48, 24.72 48.19 C23.50 46.89, 22.38 45.43, 21.45 43.91 C20.51 42.39, 18.51 40.30, 19.10 39.06 C19.69 37.83, 25.48 36.53, 25 36.50 C24.52 36.47, 18.87 36.57, 16.20 38.90 C13.53 41.23, 8.01 53.07, 9 50.50 C9.99 47.93, 19.75 29.58, 22.12 23.50 C24.49 17.42, 22.05 16.72, 23.22 14 Z" fill="#0a0a0a" fill-rule="evenodd"/><g clip-path="url(#c2-0)"><circle cx="26" cy="44" r="15" fill="#f4794a"/><circle cx="29" cy="78" r="26" fill="#efe9dd"/><ellipse cx="58" cy="56" rx="30" ry="17" fill="#0d9460" transform="rotate(10 58 56)"/></g><circle cx="34" cy="22" r="3.6" fill="#efe9dd"/><g transform="translate(43 41) scale(0.3)"><g transform="rotate(-30 50 50)"><rect x="15" y="24" width="52" height="24" rx="12" fill="#efe9dd"/><rect x="33" y="52" width="52" height="24" rx="12" fill="#0a0a0a"/></g></g><text x="50" y="112" text-anchor="middle" font-family="ui-monospace, monospace" font-size="9" fill="#0a0a0a">wingAngle 10</text></g></g><g transform="translate(152 322)"><g><rect width="100" height="100" fill="#ffffff" rx="6"/><clipPath id="c2-1"><path d="M23.22 14 C24.38 11.28, 26.80 9.01, 29.11 7.17 C31.43 5.34, 34.29 3.86, 37.12 3.01 C39.95 2.16, 43.15 1.83, 46.09 2.09 C49.03 2.35, 52.13 3.23, 54.77 4.55 C57.41 5.88, 59.97 7.84, 61.93 10.04 C63.89 12.25, 67.83 14.16, 66.55 17.79 C65.27 21.42, 56.15 29.41, 54.26 31.81 C52.37 34.21, 54.91 32.05, 55.24 32.18 C55.56 32.32, 55.88 32.45, 56.20 32.59 C56.52 32.74, 56.84 32.88, 57.15 33.04 C57.46 33.19, 55.49 27.56, 58.08 33.51 C60.67 39.47, 65 57.16, 72.69 68.77 C80.38 80.37, 99.59 96.60, 104.21 103.13 C108.83 109.67, 107.88 110.89, 100.42 107.99 C92.96 105.08, 65.02 90.50, 59.45 85.72 C53.87 80.93, 66.63 79.52, 66.98 79.28 C67.33 79.05, 63.55 82.89, 61.56 84.32 C59.58 85.75, 57.35 86.98, 55.08 87.88 C52.80 88.78, 50.34 89.42, 47.92 89.74 C45.49 90.06, 42.95 90.08, 40.52 89.80 C38.09 89.51, 35.62 88.91, 33.33 88.04 C31.04 87.17, 27.55 90.63, 26.79 84.57 C26.04 78.52, 29.14 57.77, 28.80 51.71 C28.46 45.64, 25.95 49.48, 24.72 48.19 C23.50 46.89, 22.38 45.43, 21.45 43.91 C20.51 42.39, 18.51 40.30, 19.10 39.06 C19.69 37.83, 25.48 36.53, 25 36.50 C24.52 36.47, 18.87 36.57, 16.20 38.90 C13.53 41.23, 8.01 53.07, 9 50.50 C9.99 47.93, 19.75 29.58, 22.12 23.50 C24.49 17.42, 22.05 16.72, 23.22 14 Z"/></clipPath><path d="M23.22 14 C24.38 11.28, 26.80 9.01, 29.11 7.17 C31.43 5.34, 34.29 3.86, 37.12 3.01 C39.95 2.16, 43.15 1.83, 46.09 2.09 C49.03 2.35, 52.13 3.23, 54.77 4.55 C57.41 5.88, 59.97 7.84, 61.93 10.04 C63.89 12.25, 67.83 14.16, 66.55 17.79 C65.27 21.42, 56.15 29.41, 54.26 31.81 C52.37 34.21, 54.91 32.05, 55.24 32.18 C55.56 32.32, 55.88 32.45, 56.20 32.59 C56.52 32.74, 56.84 32.88, 57.15 33.04 C57.46 33.19, 55.49 27.56, 58.08 33.51 C60.67 39.47, 65 57.16, 72.69 68.77 C80.38 80.37, 99.59 96.60, 104.21 103.13 C108.83 109.67, 107.88 110.89, 100.42 107.99 C92.96 105.08, 65.02 90.50, 59.45 85.72 C53.87 80.93, 66.63 79.52, 66.98 79.28 C67.33 79.05, 63.55 82.89, 61.56 84.32 C59.58 85.75, 57.35 86.98, 55.08 87.88 C52.80 88.78, 50.34 89.42, 47.92 89.74 C45.49 90.06, 42.95 90.08, 40.52 89.80 C38.09 89.51, 35.62 88.91, 33.33 88.04 C31.04 87.17, 27.55 90.63, 26.79 84.57 C26.04 78.52, 29.14 57.77, 28.80 51.71 C28.46 45.64, 25.95 49.48, 24.72 48.19 C23.50 46.89, 22.38 45.43, 21.45 43.91 C20.51 42.39, 18.51 40.30, 19.10 39.06 C19.69 37.83, 25.48 36.53, 25 36.50 C24.52 36.47, 18.87 36.57, 16.20 38.90 C13.53 41.23, 8.01 53.07, 9 50.50 C9.99 47.93, 19.75 29.58, 22.12 23.50 C24.49 17.42, 22.05 16.72, 23.22 14 Z" fill="#0a0a0a" fill-rule="evenodd"/><g clip-path="url(#c2-1)"><circle cx="26" cy="44" r="15" fill="#f4794a"/><circle cx="29" cy="78" r="26" fill="#efe9dd"/><ellipse cx="58" cy="56" rx="30" ry="17" fill="#0d9460" transform="rotate(20 58 56)"/></g><circle cx="34" cy="22" r="3.6" fill="#efe9dd"/><g transform="translate(43 41) scale(0.3)"><g transform="rotate(-30 50 50)"><rect x="15" y="24" width="52" height="24" rx="12" fill="#efe9dd"/><rect x="33" y="52" width="52" height="24" rx="12" fill="#0a0a0a"/></g></g><text x="50" y="112" text-anchor="middle" font-family="ui-monospace, monospace" font-size="9" fill="#0a0a0a">wingAngle 20</text></g></g><g transform="translate(278 322)"><g><rect width="100" height="100" fill="#ffffff" rx="6"/><clipPath id="c2-2"><path d="M23.22 14 C24.38 11.28, 26.80 9.01, 29.11 7.17 C31.43 5.34, 34.29 3.86, 37.12 3.01 C39.95 2.16, 43.15 1.83, 46.09 2.09 C49.03 2.35, 52.13 3.23, 54.77 4.55 C57.41 5.88, 59.97 7.84, 61.93 10.04 C63.89 12.25, 67.83 14.16, 66.55 17.79 C65.27 21.42, 56.15 29.41, 54.26 31.81 C52.37 34.21, 54.91 32.05, 55.24 32.18 C55.56 32.32, 55.88 32.45, 56.20 32.59 C56.52 32.74, 56.84 32.88, 57.15 33.04 C57.46 33.19, 55.49 27.56, 58.08 33.51 C60.67 39.47, 65 57.16, 72.69 68.77 C80.38 80.37, 99.59 96.60, 104.21 103.13 C108.83 109.67, 107.88 110.89, 100.42 107.99 C92.96 105.08, 65.02 90.50, 59.45 85.72 C53.87 80.93, 66.63 79.52, 66.98 79.28 C67.33 79.05, 63.55 82.89, 61.56 84.32 C59.58 85.75, 57.35 86.98, 55.08 87.88 C52.80 88.78, 50.34 89.42, 47.92 89.74 C45.49 90.06, 42.95 90.08, 40.52 89.80 C38.09 89.51, 35.62 88.91, 33.33 88.04 C31.04 87.17, 27.55 90.63, 26.79 84.57 C26.04 78.52, 29.14 57.77, 28.80 51.71 C28.46 45.64, 25.95 49.48, 24.72 48.19 C23.50 46.89, 22.38 45.43, 21.45 43.91 C20.51 42.39, 18.51 40.30, 19.10 39.06 C19.69 37.83, 25.48 36.53, 25 36.50 C24.52 36.47, 18.87 36.57, 16.20 38.90 C13.53 41.23, 8.01 53.07, 9 50.50 C9.99 47.93, 19.75 29.58, 22.12 23.50 C24.49 17.42, 22.05 16.72, 23.22 14 Z"/></clipPath><path d="M23.22 14 C24.38 11.28, 26.80 9.01, 29.11 7.17 C31.43 5.34, 34.29 3.86, 37.12 3.01 C39.95 2.16, 43.15 1.83, 46.09 2.09 C49.03 2.35, 52.13 3.23, 54.77 4.55 C57.41 5.88, 59.97 7.84, 61.93 10.04 C63.89 12.25, 67.83 14.16, 66.55 17.79 C65.27 21.42, 56.15 29.41, 54.26 31.81 C52.37 34.21, 54.91 32.05, 55.24 32.18 C55.56 32.32, 55.88 32.45, 56.20 32.59 C56.52 32.74, 56.84 32.88, 57.15 33.04 C57.46 33.19, 55.49 27.56, 58.08 33.51 C60.67 39.47, 65 57.16, 72.69 68.77 C80.38 80.37, 99.59 96.60, 104.21 103.13 C108.83 109.67, 107.88 110.89, 100.42 107.99 C92.96 105.08, 65.02 90.50, 59.45 85.72 C53.87 80.93, 66.63 79.52, 66.98 79.28 C67.33 79.05, 63.55 82.89, 61.56 84.32 C59.58 85.75, 57.35 86.98, 55.08 87.88 C52.80 88.78, 50.34 89.42, 47.92 89.74 C45.49 90.06, 42.95 90.08, 40.52 89.80 C38.09 89.51, 35.62 88.91, 33.33 88.04 C31.04 87.17, 27.55 90.63, 26.79 84.57 C26.04 78.52, 29.14 57.77, 28.80 51.71 C28.46 45.64, 25.95 49.48, 24.72 48.19 C23.50 46.89, 22.38 45.43, 21.45 43.91 C20.51 42.39, 18.51 40.30, 19.10 39.06 C19.69 37.83, 25.48 36.53, 25 36.50 C24.52 36.47, 18.87 36.57, 16.20 38.90 C13.53 41.23, 8.01 53.07, 9 50.50 C9.99 47.93, 19.75 29.58, 22.12 23.50 C24.49 17.42, 22.05 16.72, 23.22 14 Z" fill="#0a0a0a" fill-rule="evenodd"/><g clip-path="url(#c2-2)"><circle cx="26" cy="44" r="15" fill="#f4794a"/><circle cx="29" cy="78" r="26" fill="#efe9dd"/><ellipse cx="58" cy="56" rx="30" ry="17" fill="#0d9460" transform="rotate(30 58 56)"/></g><circle cx="34" cy="22" r="3.6" fill="#efe9dd"/><g transform="translate(43 41) scale(0.3)"><g transform="rotate(-30 50 50)"><rect x="15" y="24" width="52" height="24" rx="12" fill="#efe9dd"/><rect x="33" y="52" width="52" height="24" rx="12" fill="#0a0a0a"/></g></g><text x="50" y="112" text-anchor="middle" font-family="ui-monospace, monospace" font-size="9" fill="#0a0a0a">wingAngle 30</text></g></g><g transform="translate(404 322)"><g><rect width="100" height="100" fill="#ffffff" rx="6"/><clipPath id="c2-3"><path d="M23.22 14 C24.38 11.28, 26.80 9.01, 29.11 7.17 C31.43 5.34, 34.29 3.86, 37.12 3.01 C39.95 2.16, 43.15 1.83, 46.09 2.09 C49.03 2.35, 52.13 3.23, 54.77 4.55 C57.41 5.88, 59.97 7.84, 61.93 10.04 C63.89 12.25, 67.83 14.16, 66.55 17.79 C65.27 21.42, 56.15 29.41, 54.26 31.81 C52.37 34.21, 54.91 32.05, 55.24 32.18 C55.56 32.32, 55.88 32.45, 56.20 32.59 C56.52 32.74, 56.84 32.88, 57.15 33.04 C57.46 33.19, 55.49 27.56, 58.08 33.51 C60.67 39.47, 65 57.16, 72.69 68.77 C80.38 80.37, 99.59 96.60, 104.21 103.13 C108.83 109.67, 107.88 110.89, 100.42 107.99 C92.96 105.08, 65.02 90.50, 59.45 85.72 C53.87 80.93, 66.63 79.52, 66.98 79.28 C67.33 79.05, 63.55 82.89, 61.56 84.32 C59.58 85.75, 57.35 86.98, 55.08 87.88 C52.80 88.78, 50.34 89.42, 47.92 89.74 C45.49 90.06, 42.95 90.08, 40.52 89.80 C38.09 89.51, 35.62 88.91, 33.33 88.04 C31.04 87.17, 27.55 90.63, 26.79 84.57 C26.04 78.52, 29.14 57.77, 28.80 51.71 C28.46 45.64, 25.95 49.48, 24.72 48.19 C23.50 46.89, 22.38 45.43, 21.45 43.91 C20.51 42.39, 18.51 40.30, 19.10 39.06 C19.69 37.83, 25.48 36.53, 25 36.50 C24.52 36.47, 18.87 36.57, 16.20 38.90 C13.53 41.23, 8.01 53.07, 9 50.50 C9.99 47.93, 19.75 29.58, 22.12 23.50 C24.49 17.42, 22.05 16.72, 23.22 14 Z"/></clipPath><path d="M23.22 14 C24.38 11.28, 26.80 9.01, 29.11 7.17 C31.43 5.34, 34.29 3.86, 37.12 3.01 C39.95 2.16, 43.15 1.83, 46.09 2.09 C49.03 2.35, 52.13 3.23, 54.77 4.55 C57.41 5.88, 59.97 7.84, 61.93 10.04 C63.89 12.25, 67.83 14.16, 66.55 17.79 C65.27 21.42, 56.15 29.41, 54.26 31.81 C52.37 34.21, 54.91 32.05, 55.24 32.18 C55.56 32.32, 55.88 32.45, 56.20 32.59 C56.52 32.74, 56.84 32.88, 57.15 33.04 C57.46 33.19, 55.49 27.56, 58.08 33.51 C60.67 39.47, 65 57.16, 72.69 68.77 C80.38 80.37, 99.59 96.60, 104.21 103.13 C108.83 109.67, 107.88 110.89, 100.42 107.99 C92.96 105.08, 65.02 90.50, 59.45 85.72 C53.87 80.93, 66.63 79.52, 66.98 79.28 C67.33 79.05, 63.55 82.89, 61.56 84.32 C59.58 85.75, 57.35 86.98, 55.08 87.88 C52.80 88.78, 50.34 89.42, 47.92 89.74 C45.49 90.06, 42.95 90.08, 40.52 89.80 C38.09 89.51, 35.62 88.91, 33.33 88.04 C31.04 87.17, 27.55 90.63, 26.79 84.57 C26.04 78.52, 29.14 57.77, 28.80 51.71 C28.46 45.64, 25.95 49.48, 24.72 48.19 C23.50 46.89, 22.38 45.43, 21.45 43.91 C20.51 42.39, 18.51 40.30, 19.10 39.06 C19.69 37.83, 25.48 36.53, 25 36.50 C24.52 36.47, 18.87 36.57, 16.20 38.90 C13.53 41.23, 8.01 53.07, 9 50.50 C9.99 47.93, 19.75 29.58, 22.12 23.50 C24.49 17.42, 22.05 16.72, 23.22 14 Z" fill="#0a0a0a" fill-rule="evenodd"/><g clip-path="url(#c2-3)"><circle cx="26" cy="44" r="15" fill="#f4794a"/><circle cx="29" cy="78" r="26" fill="#efe9dd"/><ellipse cx="58" cy="56" rx="30" ry="17" fill="#0d9460" transform="rotate(40 58 56)"/></g><circle cx="34" cy="22" r="3.6" fill="#efe9dd"/><g transform="translate(43 41) scale(0.3)"><g transform="rotate(-30 50 50)"><rect x="15" y="24" width="52" height="24" rx="12" fill="#efe9dd"/><rect x="33" y="52" width="52" height="24" rx="12" fill="#0a0a0a"/></g></g><text x="50" y="112" text-anchor="middle" font-family="ui-monospace, monospace" font-size="9" fill="#0a0a0a">wingAngle 40</text></g></g><g transform="translate(530 322)"><g><rect width="100" height="100" fill="#ffffff" rx="6"/><clipPath id="c2-4"><path d="M23.22 14 C24.38 11.28, 26.80 9.01, 29.11 7.17 C31.43 5.34, 34.29 3.86, 37.12 3.01 C39.95 2.16, 43.15 1.83, 46.09 2.09 C49.03 2.35, 52.13 3.23, 54.77 4.55 C57.41 5.88, 59.97 7.84, 61.93 10.04 C63.89 12.25, 67.83 14.16, 66.55 17.79 C65.27 21.42, 56.15 29.41, 54.26 31.81 C52.37 34.21, 54.91 32.05, 55.24 32.18 C55.56 32.32, 55.88 32.45, 56.20 32.59 C56.52 32.74, 56.84 32.88, 57.15 33.04 C57.46 33.19, 55.49 27.56, 58.08 33.51 C60.67 39.47, 65 57.16, 72.69 68.77 C80.38 80.37, 99.59 96.60, 104.21 103.13 C108.83 109.67, 107.88 110.89, 100.42 107.99 C92.96 105.08, 65.02 90.50, 59.45 85.72 C53.87 80.93, 66.63 79.52, 66.98 79.28 C67.33 79.05, 63.55 82.89, 61.56 84.32 C59.58 85.75, 57.35 86.98, 55.08 87.88 C52.80 88.78, 50.34 89.42, 47.92 89.74 C45.49 90.06, 42.95 90.08, 40.52 89.80 C38.09 89.51, 35.62 88.91, 33.33 88.04 C31.04 87.17, 27.55 90.63, 26.79 84.57 C26.04 78.52, 29.14 57.77, 28.80 51.71 C28.46 45.64, 25.95 49.48, 24.72 48.19 C23.50 46.89, 22.38 45.43, 21.45 43.91 C20.51 42.39, 18.51 40.30, 19.10 39.06 C19.69 37.83, 25.48 36.53, 25 36.50 C24.52 36.47, 18.87 36.57, 16.20 38.90 C13.53 41.23, 8.01 53.07, 9 50.50 C9.99 47.93, 19.75 29.58, 22.12 23.50 C24.49 17.42, 22.05 16.72, 23.22 14 Z"/></clipPath><path d="M23.22 14 C24.38 11.28, 26.80 9.01, 29.11 7.17 C31.43 5.34, 34.29 3.86, 37.12 3.01 C39.95 2.16, 43.15 1.83, 46.09 2.09 C49.03 2.35, 52.13 3.23, 54.77 4.55 C57.41 5.88, 59.97 7.84, 61.93 10.04 C63.89 12.25, 67.83 14.16, 66.55 17.79 C65.27 21.42, 56.15 29.41, 54.26 31.81 C52.37 34.21, 54.91 32.05, 55.24 32.18 C55.56 32.32, 55.88 32.45, 56.20 32.59 C56.52 32.74, 56.84 32.88, 57.15 33.04 C57.46 33.19, 55.49 27.56, 58.08 33.51 C60.67 39.47, 65 57.16, 72.69 68.77 C80.38 80.37, 99.59 96.60, 104.21 103.13 C108.83 109.67, 107.88 110.89, 100.42 107.99 C92.96 105.08, 65.02 90.50, 59.45 85.72 C53.87 80.93, 66.63 79.52, 66.98 79.28 C67.33 79.05, 63.55 82.89, 61.56 84.32 C59.58 85.75, 57.35 86.98, 55.08 87.88 C52.80 88.78, 50.34 89.42, 47.92 89.74 C45.49 90.06, 42.95 90.08, 40.52 89.80 C38.09 89.51, 35.62 88.91, 33.33 88.04 C31.04 87.17, 27.55 90.63, 26.79 84.57 C26.04 78.52, 29.14 57.77, 28.80 51.71 C28.46 45.64, 25.95 49.48, 24.72 48.19 C23.50 46.89, 22.38 45.43, 21.45 43.91 C20.51 42.39, 18.51 40.30, 19.10 39.06 C19.69 37.83, 25.48 36.53, 25 36.50 C24.52 36.47, 18.87 36.57, 16.20 38.90 C13.53 41.23, 8.01 53.07, 9 50.50 C9.99 47.93, 19.75 29.58, 22.12 23.50 C24.49 17.42, 22.05 16.72, 23.22 14 Z" fill="#0a0a0a" fill-rule="evenodd"/><g clip-path="url(#c2-4)"><circle cx="26" cy="44" r="15" fill="#f4794a"/><circle cx="29" cy="78" r="26" fill="#efe9dd"/><ellipse cx="58" cy="56" rx="30" ry="17" fill="#0d9460" transform="rotate(50 58 56)"/></g><circle cx="34" cy="22" r="3.6" fill="#efe9dd"/><g transform="translate(43 41) scale(0.3)"><g transform="rotate(-30 50 50)"><rect x="15" y="24" width="52" height="24" rx="12" fill="#efe9dd"/><rect x="33" y="52" width="52" height="24" rx="12" fill="#0a0a0a"/></g></g><text x="50" y="112" text-anchor="middle" font-family="ui-monospace, monospace" font-size="9" fill="#0a0a0a">wingAngle 50</text></g></g><g transform="translate(26 470)"><g><rect width="100" height="100" fill="#ffffff" rx="6"/><clipPath id="c3-0"><path d="M23.22 14 C24.38 11.28, 26.80 9.01, 29.11 7.17 C31.43 5.34, 34.29 3.86, 37.12 3.01 C39.95 2.16, 43.15 1.83, 46.09 2.09 C49.03 2.35, 52.13 3.23, 54.77 4.55 C57.41 5.88, 59.97 7.84, 61.93 10.04 C63.89 12.25, 67.83 14.16, 66.55 17.79 C65.27 21.42, 56.15 29.41, 54.26 31.81 C52.37 34.21, 54.91 32.05, 55.24 32.18 C55.56 32.32, 55.88 32.45, 56.20 32.59 C56.52 32.74, 56.84 32.88, 57.15 33.04 C57.46 33.19, 55.49 27.56, 58.08 33.51 C60.67 39.47, 65 57.16, 72.69 68.77 C80.38 80.37, 99.59 96.60, 104.21 103.13 C108.83 109.67, 107.88 110.89, 100.42 107.99 C92.96 105.08, 65.02 90.50, 59.45 85.72 C53.87 80.93, 66.63 79.52, 66.98 79.28 C67.33 79.05, 63.55 82.89, 61.56 84.32 C59.58 85.75, 57.35 86.98, 55.08 87.88 C52.80 88.78, 50.34 89.42, 47.92 89.74 C45.49 90.06, 42.95 90.08, 40.52 89.80 C38.09 89.51, 35.62 88.91, 33.33 88.04 C31.04 87.17, 27.55 90.63, 26.79 84.57 C26.04 78.52, 29.14 57.77, 28.80 51.71 C28.46 45.64, 25.95 49.48, 24.72 48.19 C23.50 46.89, 22.38 45.43, 21.45 43.91 C20.51 42.39, 18.51 40.30, 19.10 39.06 C19.69 37.83, 25.48 36.53, 25 36.50 C24.52 36.47, 18.87 36.57, 16.20 38.90 C13.53 41.23, 8.01 53.07, 9 50.50 C9.99 47.93, 19.75 29.58, 22.12 23.50 C24.49 17.42, 22.05 16.72, 23.22 14 Z"/></clipPath><path d="M23.22 14 C24.38 11.28, 26.80 9.01, 29.11 7.17 C31.43 5.34, 34.29 3.86, 37.12 3.01 C39.95 2.16, 43.15 1.83, 46.09 2.09 C49.03 2.35, 52.13 3.23, 54.77 4.55 C57.41 5.88, 59.97 7.84, 61.93 10.04 C63.89 12.25, 67.83 14.16, 66.55 17.79 C65.27 21.42, 56.15 29.41, 54.26 31.81 C52.37 34.21, 54.91 32.05, 55.24 32.18 C55.56 32.32, 55.88 32.45, 56.20 32.59 C56.52 32.74, 56.84 32.88, 57.15 33.04 C57.46 33.19, 55.49 27.56, 58.08 33.51 C60.67 39.47, 65 57.16, 72.69 68.77 C80.38 80.37, 99.59 96.60, 104.21 103.13 C108.83 109.67, 107.88 110.89, 100.42 107.99 C92.96 105.08, 65.02 90.50, 59.45 85.72 C53.87 80.93, 66.63 79.52, 66.98 79.28 C67.33 79.05, 63.55 82.89, 61.56 84.32 C59.58 85.75, 57.35 86.98, 55.08 87.88 C52.80 88.78, 50.34 89.42, 47.92 89.74 C45.49 90.06, 42.95 90.08, 40.52 89.80 C38.09 89.51, 35.62 88.91, 33.33 88.04 C31.04 87.17, 27.55 90.63, 26.79 84.57 C26.04 78.52, 29.14 57.77, 28.80 51.71 C28.46 45.64, 25.95 49.48, 24.72 48.19 C23.50 46.89, 22.38 45.43, 21.45 43.91 C20.51 42.39, 18.51 40.30, 19.10 39.06 C19.69 37.83, 25.48 36.53, 25 36.50 C24.52 36.47, 18.87 36.57, 16.20 38.90 C13.53 41.23, 8.01 53.07, 9 50.50 C9.99 47.93, 19.75 29.58, 22.12 23.50 C24.49 17.42, 22.05 16.72, 23.22 14 Z" fill="#0a0a0a" fill-rule="evenodd"/><g clip-path="url(#c3-0)"><circle cx="26" cy="44" r="15" fill="#f4794a"/><circle cx="29" cy="78" r="26" fill="#efe9dd"/><ellipse cx="58" cy="56" rx="22" ry="17" fill="#0d9460" transform="rotate(28 58 56)"/></g><circle cx="34" cy="22" r="3.6" fill="#efe9dd"/><g transform="translate(43 41) scale(0.3)"><g transform="rotate(-30 50 50)"><rect x="15" y="24" width="52" height="24" rx="12" fill="#efe9dd"/><rect x="33" y="52" width="52" height="24" rx="12" fill="#0a0a0a"/></g></g><text x="50" y="112" text-anchor="middle" font-family="ui-monospace, monospace" font-size="9" fill="#0a0a0a">wingLength 22</text></g></g><g transform="translate(152 470)"><g><rect width="100" height="100" fill="#ffffff" rx="6"/><clipPath id="c3-1"><path d="M23.22 14 C24.38 11.28, 26.80 9.01, 29.11 7.17 C31.43 5.34, 34.29 3.86, 37.12 3.01 C39.95 2.16, 43.15 1.83, 46.09 2.09 C49.03 2.35, 52.13 3.23, 54.77 4.55 C57.41 5.88, 59.97 7.84, 61.93 10.04 C63.89 12.25, 67.83 14.16, 66.55 17.79 C65.27 21.42, 56.15 29.41, 54.26 31.81 C52.37 34.21, 54.91 32.05, 55.24 32.18 C55.56 32.32, 55.88 32.45, 56.20 32.59 C56.52 32.74, 56.84 32.88, 57.15 33.04 C57.46 33.19, 55.49 27.56, 58.08 33.51 C60.67 39.47, 65 57.16, 72.69 68.77 C80.38 80.37, 99.59 96.60, 104.21 103.13 C108.83 109.67, 107.88 110.89, 100.42 107.99 C92.96 105.08, 65.02 90.50, 59.45 85.72 C53.87 80.93, 66.63 79.52, 66.98 79.28 C67.33 79.05, 63.55 82.89, 61.56 84.32 C59.58 85.75, 57.35 86.98, 55.08 87.88 C52.80 88.78, 50.34 89.42, 47.92 89.74 C45.49 90.06, 42.95 90.08, 40.52 89.80 C38.09 89.51, 35.62 88.91, 33.33 88.04 C31.04 87.17, 27.55 90.63, 26.79 84.57 C26.04 78.52, 29.14 57.77, 28.80 51.71 C28.46 45.64, 25.95 49.48, 24.72 48.19 C23.50 46.89, 22.38 45.43, 21.45 43.91 C20.51 42.39, 18.51 40.30, 19.10 39.06 C19.69 37.83, 25.48 36.53, 25 36.50 C24.52 36.47, 18.87 36.57, 16.20 38.90 C13.53 41.23, 8.01 53.07, 9 50.50 C9.99 47.93, 19.75 29.58, 22.12 23.50 C24.49 17.42, 22.05 16.72, 23.22 14 Z"/></clipPath><path d="M23.22 14 C24.38 11.28, 26.80 9.01, 29.11 7.17 C31.43 5.34, 34.29 3.86, 37.12 3.01 C39.95 2.16, 43.15 1.83, 46.09 2.09 C49.03 2.35, 52.13 3.23, 54.77 4.55 C57.41 5.88, 59.97 7.84, 61.93 10.04 C63.89 12.25, 67.83 14.16, 66.55 17.79 C65.27 21.42, 56.15 29.41, 54.26 31.81 C52.37 34.21, 54.91 32.05, 55.24 32.18 C55.56 32.32, 55.88 32.45, 56.20 32.59 C56.52 32.74, 56.84 32.88, 57.15 33.04 C57.46 33.19, 55.49 27.56, 58.08 33.51 C60.67 39.47, 65 57.16, 72.69 68.77 C80.38 80.37, 99.59 96.60, 104.21 103.13 C108.83 109.67, 107.88 110.89, 100.42 107.99 C92.96 105.08, 65.02 90.50, 59.45 85.72 C53.87 80.93, 66.63 79.52, 66.98 79.28 C67.33 79.05, 63.55 82.89, 61.56 84.32 C59.58 85.75, 57.35 86.98, 55.08 87.88 C52.80 88.78, 50.34 89.42, 47.92 89.74 C45.49 90.06, 42.95 90.08, 40.52 89.80 C38.09 89.51, 35.62 88.91, 33.33 88.04 C31.04 87.17, 27.55 90.63, 26.79 84.57 C26.04 78.52, 29.14 57.77, 28.80 51.71 C28.46 45.64, 25.95 49.48, 24.72 48.19 C23.50 46.89, 22.38 45.43, 21.45 43.91 C20.51 42.39, 18.51 40.30, 19.10 39.06 C19.69 37.83, 25.48 36.53, 25 36.50 C24.52 36.47, 18.87 36.57, 16.20 38.90 C13.53 41.23, 8.01 53.07, 9 50.50 C9.99 47.93, 19.75 29.58, 22.12 23.50 C24.49 17.42, 22.05 16.72, 23.22 14 Z" fill="#0a0a0a" fill-rule="evenodd"/><g clip-path="url(#c3-1)"><circle cx="26" cy="44" r="15" fill="#f4794a"/><circle cx="29" cy="78" r="26" fill="#efe9dd"/><ellipse cx="58" cy="56" rx="26" ry="17" fill="#0d9460" transform="rotate(28 58 56)"/></g><circle cx="34" cy="22" r="3.6" fill="#efe9dd"/><g transform="translate(43 41) scale(0.3)"><g transform="rotate(-30 50 50)"><rect x="15" y="24" width="52" height="24" rx="12" fill="#efe9dd"/><rect x="33" y="52" width="52" height="24" rx="12" fill="#0a0a0a"/></g></g><text x="50" y="112" text-anchor="middle" font-family="ui-monospace, monospace" font-size="9" fill="#0a0a0a">wingLength 26</text></g></g><g transform="translate(278 470)"><g><rect width="100" height="100" fill="#ffffff" rx="6"/><clipPath id="c3-2"><path d="M23.22 14 C24.38 11.28, 26.80 9.01, 29.11 7.17 C31.43 5.34, 34.29 3.86, 37.12 3.01 C39.95 2.16, 43.15 1.83, 46.09 2.09 C49.03 2.35, 52.13 3.23, 54.77 4.55 C57.41 5.88, 59.97 7.84, 61.93 10.04 C63.89 12.25, 67.83 14.16, 66.55 17.79 C65.27 21.42, 56.15 29.41, 54.26 31.81 C52.37 34.21, 54.91 32.05, 55.24 32.18 C55.56 32.32, 55.88 32.45, 56.20 32.59 C56.52 32.74, 56.84 32.88, 57.15 33.04 C57.46 33.19, 55.49 27.56, 58.08 33.51 C60.67 39.47, 65 57.16, 72.69 68.77 C80.38 80.37, 99.59 96.60, 104.21 103.13 C108.83 109.67, 107.88 110.89, 100.42 107.99 C92.96 105.08, 65.02 90.50, 59.45 85.72 C53.87 80.93, 66.63 79.52, 66.98 79.28 C67.33 79.05, 63.55 82.89, 61.56 84.32 C59.58 85.75, 57.35 86.98, 55.08 87.88 C52.80 88.78, 50.34 89.42, 47.92 89.74 C45.49 90.06, 42.95 90.08, 40.52 89.80 C38.09 89.51, 35.62 88.91, 33.33 88.04 C31.04 87.17, 27.55 90.63, 26.79 84.57 C26.04 78.52, 29.14 57.77, 28.80 51.71 C28.46 45.64, 25.95 49.48, 24.72 48.19 C23.50 46.89, 22.38 45.43, 21.45 43.91 C20.51 42.39, 18.51 40.30, 19.10 39.06 C19.69 37.83, 25.48 36.53, 25 36.50 C24.52 36.47, 18.87 36.57, 16.20 38.90 C13.53 41.23, 8.01 53.07, 9 50.50 C9.99 47.93, 19.75 29.58, 22.12 23.50 C24.49 17.42, 22.05 16.72, 23.22 14 Z"/></clipPath><path d="M23.22 14 C24.38 11.28, 26.80 9.01, 29.11 7.17 C31.43 5.34, 34.29 3.86, 37.12 3.01 C39.95 2.16, 43.15 1.83, 46.09 2.09 C49.03 2.35, 52.13 3.23, 54.77 4.55 C57.41 5.88, 59.97 7.84, 61.93 10.04 C63.89 12.25, 67.83 14.16, 66.55 17.79 C65.27 21.42, 56.15 29.41, 54.26 31.81 C52.37 34.21, 54.91 32.05, 55.24 32.18 C55.56 32.32, 55.88 32.45, 56.20 32.59 C56.52 32.74, 56.84 32.88, 57.15 33.04 C57.46 33.19, 55.49 27.56, 58.08 33.51 C60.67 39.47, 65 57.16, 72.69 68.77 C80.38 80.37, 99.59 96.60, 104.21 103.13 C108.83 109.67, 107.88 110.89, 100.42 107.99 C92.96 105.08, 65.02 90.50, 59.45 85.72 C53.87 80.93, 66.63 79.52, 66.98 79.28 C67.33 79.05, 63.55 82.89, 61.56 84.32 C59.58 85.75, 57.35 86.98, 55.08 87.88 C52.80 88.78, 50.34 89.42, 47.92 89.74 C45.49 90.06, 42.95 90.08, 40.52 89.80 C38.09 89.51, 35.62 88.91, 33.33 88.04 C31.04 87.17, 27.55 90.63, 26.79 84.57 C26.04 78.52, 29.14 57.77, 28.80 51.71 C28.46 45.64, 25.95 49.48, 24.72 48.19 C23.50 46.89, 22.38 45.43, 21.45 43.91 C20.51 42.39, 18.51 40.30, 19.10 39.06 C19.69 37.83, 25.48 36.53, 25 36.50 C24.52 36.47, 18.87 36.57, 16.20 38.90 C13.53 41.23, 8.01 53.07, 9 50.50 C9.99 47.93, 19.75 29.58, 22.12 23.50 C24.49 17.42, 22.05 16.72, 23.22 14 Z" fill="#0a0a0a" fill-rule="evenodd"/><g clip-path="url(#c3-2)"><circle cx="26" cy="44" r="15" fill="#f4794a"/><circle cx="29" cy="78" r="26" fill="#efe9dd"/><ellipse cx="58" cy="56" rx="30" ry="17" fill="#0d9460" transform="rotate(28 58 56)"/></g><circle cx="34" cy="22" r="3.6" fill="#efe9dd"/><g transform="translate(43 41) scale(0.3)"><g transform="rotate(-30 50 50)"><rect x="15" y="24" width="52" height="24" rx="12" fill="#efe9dd"/><rect x="33" y="52" width="52" height="24" rx="12" fill="#0a0a0a"/></g></g><text x="50" y="112" text-anchor="middle" font-family="ui-monospace, monospace" font-size="9" fill="#0a0a0a">wingLength 30</text></g></g><g transform="translate(404 470)"><g><rect width="100" height="100" fill="#ffffff" rx="6"/><clipPath id="c3-3"><path d="M23.22 14 C24.38 11.28, 26.80 9.01, 29.11 7.17 C31.43 5.34, 34.29 3.86, 37.12 3.01 C39.95 2.16, 43.15 1.83, 46.09 2.09 C49.03 2.35, 52.13 3.23, 54.77 4.55 C57.41 5.88, 59.97 7.84, 61.93 10.04 C63.89 12.25, 67.83 14.16, 66.55 17.79 C65.27 21.42, 56.15 29.41, 54.26 31.81 C52.37 34.21, 54.91 32.05, 55.24 32.18 C55.56 32.32, 55.88 32.45, 56.20 32.59 C56.52 32.74, 56.84 32.88, 57.15 33.04 C57.46 33.19, 55.49 27.56, 58.08 33.51 C60.67 39.47, 65 57.16, 72.69 68.77 C80.38 80.37, 99.59 96.60, 104.21 103.13 C108.83 109.67, 107.88 110.89, 100.42 107.99 C92.96 105.08, 65.02 90.50, 59.45 85.72 C53.87 80.93, 66.63 79.52, 66.98 79.28 C67.33 79.05, 63.55 82.89, 61.56 84.32 C59.58 85.75, 57.35 86.98, 55.08 87.88 C52.80 88.78, 50.34 89.42, 47.92 89.74 C45.49 90.06, 42.95 90.08, 40.52 89.80 C38.09 89.51, 35.62 88.91, 33.33 88.04 C31.04 87.17, 27.55 90.63, 26.79 84.57 C26.04 78.52, 29.14 57.77, 28.80 51.71 C28.46 45.64, 25.95 49.48, 24.72 48.19 C23.50 46.89, 22.38 45.43, 21.45 43.91 C20.51 42.39, 18.51 40.30, 19.10 39.06 C19.69 37.83, 25.48 36.53, 25 36.50 C24.52 36.47, 18.87 36.57, 16.20 38.90 C13.53 41.23, 8.01 53.07, 9 50.50 C9.99 47.93, 19.75 29.58, 22.12 23.50 C24.49 17.42, 22.05 16.72, 23.22 14 Z"/></clipPath><path d="M23.22 14 C24.38 11.28, 26.80 9.01, 29.11 7.17 C31.43 5.34, 34.29 3.86, 37.12 3.01 C39.95 2.16, 43.15 1.83, 46.09 2.09 C49.03 2.35, 52.13 3.23, 54.77 4.55 C57.41 5.88, 59.97 7.84, 61.93 10.04 C63.89 12.25, 67.83 14.16, 66.55 17.79 C65.27 21.42, 56.15 29.41, 54.26 31.81 C52.37 34.21, 54.91 32.05, 55.24 32.18 C55.56 32.32, 55.88 32.45, 56.20 32.59 C56.52 32.74, 56.84 32.88, 57.15 33.04 C57.46 33.19, 55.49 27.56, 58.08 33.51 C60.67 39.47, 65 57.16, 72.69 68.77 C80.38 80.37, 99.59 96.60, 104.21 103.13 C108.83 109.67, 107.88 110.89, 100.42 107.99 C92.96 105.08, 65.02 90.50, 59.45 85.72 C53.87 80.93, 66.63 79.52, 66.98 79.28 C67.33 79.05, 63.55 82.89, 61.56 84.32 C59.58 85.75, 57.35 86.98, 55.08 87.88 C52.80 88.78, 50.34 89.42, 47.92 89.74 C45.49 90.06, 42.95 90.08, 40.52 89.80 C38.09 89.51, 35.62 88.91, 33.33 88.04 C31.04 87.17, 27.55 90.63, 26.79 84.57 C26.04 78.52, 29.14 57.77, 28.80 51.71 C28.46 45.64, 25.95 49.48, 24.72 48.19 C23.50 46.89, 22.38 45.43, 21.45 43.91 C20.51 42.39, 18.51 40.30, 19.10 39.06 C19.69 37.83, 25.48 36.53, 25 36.50 C24.52 36.47, 18.87 36.57, 16.20 38.90 C13.53 41.23, 8.01 53.07, 9 50.50 C9.99 47.93, 19.75 29.58, 22.12 23.50 C24.49 17.42, 22.05 16.72, 23.22 14 Z" fill="#0a0a0a" fill-rule="evenodd"/><g clip-path="url(#c3-3)"><circle cx="26" cy="44" r="15" fill="#f4794a"/><circle cx="29" cy="78" r="26" fill="#efe9dd"/><ellipse cx="58" cy="56" rx="34" ry="17" fill="#0d9460" transform="rotate(28 58 56)"/></g><circle cx="34" cy="22" r="3.6" fill="#efe9dd"/><g transform="translate(43 41) scale(0.3)"><g transform="rotate(-30 50 50)"><rect x="15" y="24" width="52" height="24" rx="12" fill="#efe9dd"/><rect x="33" y="52" width="52" height="24" rx="12" fill="#0a0a0a"/></g></g><text x="50" y="112" text-anchor="middle" font-family="ui-monospace, monospace" font-size="9" fill="#0a0a0a">wingLength 34</text></g></g><g transform="translate(530 470)"><g><rect width="100" height="100" fill="#ffffff" rx="6"/><clipPath id="c3-4"><path d="M23.22 14 C24.38 11.28, 26.80 9.01, 29.11 7.17 C31.43 5.34, 34.29 3.86, 37.12 3.01 C39.95 2.16, 43.15 1.83, 46.09 2.09 C49.03 2.35, 52.13 3.23, 54.77 4.55 C57.41 5.88, 59.97 7.84, 61.93 10.04 C63.89 12.25, 67.83 14.16, 66.55 17.79 C65.27 21.42, 56.15 29.41, 54.26 31.81 C52.37 34.21, 54.91 32.05, 55.24 32.18 C55.56 32.32, 55.88 32.45, 56.20 32.59 C56.52 32.74, 56.84 32.88, 57.15 33.04 C57.46 33.19, 55.49 27.56, 58.08 33.51 C60.67 39.47, 65 57.16, 72.69 68.77 C80.38 80.37, 99.59 96.60, 104.21 103.13 C108.83 109.67, 107.88 110.89, 100.42 107.99 C92.96 105.08, 65.02 90.50, 59.45 85.72 C53.87 80.93, 66.63 79.52, 66.98 79.28 C67.33 79.05, 63.55 82.89, 61.56 84.32 C59.58 85.75, 57.35 86.98, 55.08 87.88 C52.80 88.78, 50.34 89.42, 47.92 89.74 C45.49 90.06, 42.95 90.08, 40.52 89.80 C38.09 89.51, 35.62 88.91, 33.33 88.04 C31.04 87.17, 27.55 90.63, 26.79 84.57 C26.04 78.52, 29.14 57.77, 28.80 51.71 C28.46 45.64, 25.95 49.48, 24.72 48.19 C23.50 46.89, 22.38 45.43, 21.45 43.91 C20.51 42.39, 18.51 40.30, 19.10 39.06 C19.69 37.83, 25.48 36.53, 25 36.50 C24.52 36.47, 18.87 36.57, 16.20 38.90 C13.53 41.23, 8.01 53.07, 9 50.50 C9.99 47.93, 19.75 29.58, 22.12 23.50 C24.49 17.42, 22.05 16.72, 23.22 14 Z"/></clipPath><path d="M23.22 14 C24.38 11.28, 26.80 9.01, 29.11 7.17 C31.43 5.34, 34.29 3.86, 37.12 3.01 C39.95 2.16, 43.15 1.83, 46.09 2.09 C49.03 2.35, 52.13 3.23, 54.77 4.55 C57.41 5.88, 59.97 7.84, 61.93 10.04 C63.89 12.25, 67.83 14.16, 66.55 17.79 C65.27 21.42, 56.15 29.41, 54.26 31.81 C52.37 34.21, 54.91 32.05, 55.24 32.18 C55.56 32.32, 55.88 32.45, 56.20 32.59 C56.52 32.74, 56.84 32.88, 57.15 33.04 C57.46 33.19, 55.49 27.56, 58.08 33.51 C60.67 39.47, 65 57.16, 72.69 68.77 C80.38 80.37, 99.59 96.60, 104.21 103.13 C108.83 109.67, 107.88 110.89, 100.42 107.99 C92.96 105.08, 65.02 90.50, 59.45 85.72 C53.87 80.93, 66.63 79.52, 66.98 79.28 C67.33 79.05, 63.55 82.89, 61.56 84.32 C59.58 85.75, 57.35 86.98, 55.08 87.88 C52.80 88.78, 50.34 89.42, 47.92 89.74 C45.49 90.06, 42.95 90.08, 40.52 89.80 C38.09 89.51, 35.62 88.91, 33.33 88.04 C31.04 87.17, 27.55 90.63, 26.79 84.57 C26.04 78.52, 29.14 57.77, 28.80 51.71 C28.46 45.64, 25.95 49.48, 24.72 48.19 C23.50 46.89, 22.38 45.43, 21.45 43.91 C20.51 42.39, 18.51 40.30, 19.10 39.06 C19.69 37.83, 25.48 36.53, 25 36.50 C24.52 36.47, 18.87 36.57, 16.20 38.90 C13.53 41.23, 8.01 53.07, 9 50.50 C9.99 47.93, 19.75 29.58, 22.12 23.50 C24.49 17.42, 22.05 16.72, 23.22 14 Z" fill="#0a0a0a" fill-rule="evenodd"/><g clip-path="url(#c3-4)"><circle cx="26" cy="44" r="15" fill="#f4794a"/><circle cx="29" cy="78" r="26" fill="#efe9dd"/><ellipse cx="58" cy="56" rx="38" ry="17" fill="#0d9460" transform="rotate(28 58 56)"/></g><circle cx="34" cy="22" r="3.6" fill="#efe9dd"/><g transform="translate(43 41) scale(0.3)"><g transform="rotate(-30 50 50)"><rect x="15" y="24" width="52" height="24" rx="12" fill="#efe9dd"/><rect x="33" y="52" width="52" height="24" rx="12" fill="#0a0a0a"/></g></g><text x="50" y="112" text-anchor="middle" font-family="ui-monospace, monospace" font-size="9" fill="#0a0a0a">wingLength 38</text></g></g></svg>