<!-- Generated by scripts/brand.ts. Run `npm run brand`. Do not edit. -->
<svg xmlns="http://www.w3.org/2000/svg" width="480" height="120" viewBox="0 0 480 120" role="img" aria-label="bellpull — Pull here, work happens there.">
<rect width="480" height="120" fill="#12201b"/>
<g transform="translate(84.68 18) scale(0.84)"><linearGradient id="burgee-1myqkd3" gradientUnits="userSpaceOnUse" x1="25" y1="6.7" x2="75" y2="93.3"><stop offset="0" stop-color="#0a0a0a"/></linearGradient><path d="M46 6 a4 4 0 0 1 8 0 V56 A22 22 0 1 1 46 56 Z" fill="none" stroke="#efe9dd" stroke-width="4" stroke-linejoin="round"/><path d="M46 6 a4 4 0 0 1 8 0 V56 A22 22 0 1 1 46 56 Z" fill="url(#burgee-1myqkd3)" fill-rule="evenodd"/><clipPath id="burgee-1myqkd3-c"><path d="M46 6 a4 4 0 0 1 8 0 V56 A22 22 0 1 1 46 56 Z"/></clipPath><linearGradient id="burgee-1myqkd3-s" gradientUnits="objectBoundingBox" x1="0" y1="0" x2="1" y2="0"><stop offset="0" stop-color="#ffffff" stop-opacity="0"/><stop offset="0.50" stop-color="#ffffff" stop-opacity="0.16"/><stop offset="1" stop-color="#ffffff" stop-opacity="0"/></linearGradient><g clip-path="url(#burgee-1myqkd3-c)"><g transform="skewX(-14)"><rect x="8" y="-20" width="34" height="140" fill="url(#burgee-1myqkd3-s)"/></g></g><g clip-path="url(#burgee-1myqkd3-c)"><path d="M46 6 a4 4 0 0 1 8 0 V56 A22 22 0 1 1 46 56 Z" fill="none" stroke="#ffffff" stroke-opacity="0.28" stroke-width="1.5" stroke-linejoin="round" transform="translate(-0.55 -0.55)"/><path d="M46 6 a4 4 0 0 1 8 0 V56 A22 22 0 1 1 46 56 Z" fill="none" stroke="#000000" stroke-opacity="0.13" stroke-width="1.5" stroke-linejoin="round" transform="translate(0.55 0.55)"/></g><g transform="translate(22 30) scale(0.40)"><g transform="translate(28.00 60.00)"><g transform="translate(2 10) scale(0.80)"><g transform="rotate(-30 50 50)"><rect x="15" y="24" width="52" height="24" rx="12" fill="#f4794a"/><rect x="33" y="52" width="52" height="24" rx="12" fill="#0d9460"/></g></g></g></g></g>
<text x="192.20" y="68.90" font-family="ui-monospace, SFMono-Regular, Menlo, monospace" font-size="35.28" font-weight="700" letter-spacing="-1.06" fill="#f0f3f6">bellpull</text>
<text x="192.20" y="86.38" font-family="ui-monospace, SFMono-Regular, Menlo, monospace" font-size="10.92" fill="#9aada5">Pull here, work happens there.</text>
</svg>
