<!-- Generated by scripts/brand.ts. Run `npm run brand`. Do not edit. -->
<svg xmlns="http://www.w3.org/2000/svg" viewBox="0 0 100 100" width="512" height="512" role="img" aria-label="burgee">
  <style>@keyframes burgee-13062fb-sweep{from{transform:translateX(0)}to{transform:translateX(190px)}}.burgee-13062fb-sweep{animation:burgee-13062fb-sweep 7s ease-in-out infinite}@media (prefers-reduced-motion:reduce){.burgee-13062fb-sweep{animation:none;transform:translateX(58px)}}</style>
  <linearGradient id="burgee-13062fb" gradientUnits="userSpaceOnUse" x1="25" y1="6.7" x2="75" y2="93.3"><stop offset="0" stop-color="#0a0a0a"/></linearGradient><path d="M10 20 L94 32 L66 50 L94 68 L10 80 Z" fill="none" stroke="#efe9dd" stroke-width="4" stroke-linejoin="round"/><path d="M10 20 L94 32 L66 50 L94 68 L10 80 Z" fill="url(#burgee-13062fb)"/><clipPath id="burgee-13062fb-c"><path d="M10 20 L94 32 L66 50 L94 68 L10 80 Z"/></clipPath><linearGradient id="burgee-13062fb-s" gradientUnits="objectBoundingBox" x1="0" y1="0" x2="1" y2="0"><stop offset="0" stop-color="#ffffff" stop-opacity="0"/><stop offset="0.50" stop-color="#ffffff" stop-opacity="0.16"/><stop offset="1" stop-color="#ffffff" stop-opacity="0"/></linearGradient><g clip-path="url(#burgee-13062fb-c)"><g transform="skewX(-14)"><rect x="-50" y="-20" width="34" height="140" class="burgee-13062fb-sweep" fill="url(#burgee-13062fb-s)"/></g></g><g clip-path="url(#burgee-13062fb-c)"><path d="M10 20 L94 32 L66 50 L94 68 L10 80 Z" fill="none" stroke="#ffffff" stroke-opacity="0.28" stroke-width="1.5" stroke-linejoin="round" transform="translate(-0.55 -0.55)"/><path d="M10 20 L94 32 L66 50 L94 68 L10 80 Z" fill="none" stroke="#000000" stroke-opacity="0.13" stroke-width="1.5" stroke-linejoin="round" transform="translate(0.55 0.55)"/></g><g transform="translate(22 30) scale(0.40)"><g transform="rotate(-30 50 50)"><rect x="15" y="24" width="52" height="24" rx="12" fill="#f4794a"/><rect x="33" y="52" width="52" height="24" rx="12" fill="#0d9460"/></g></g>
</svg>
