<!-- Generated by scripts/brand.ts. Run `npm run brand`. Do not edit. -->
<svg xmlns="http://www.w3.org/2000/svg" viewBox="0 0 100 100" width="512" height="512" role="img" aria-label="seniority">
  <style>@keyframes burgee-3uubv8-sweep{from{transform:translateX(0)}to{transform:translateX(190px)}}.burgee-3uubv8-sweep{animation:burgee-3uubv8-sweep 7s ease-in-out infinite}@media (prefers-reduced-motion:reduce){.burgee-3uubv8-sweep{animation:none;transform:translateX(58px)}}</style>
  <linearGradient id="burgee-3uubv8" gradientUnits="userSpaceOnUse" x1="25" y1="6.7" x2="75" y2="93.3"><stop offset="0" stop-color="#0a0a0a"/></linearGradient><path d="M12 52 L50 34 L88 52 V62 L50 44 L12 62 Z M12 70 L50 52 L88 70 V80 L50 62 L12 80 Z M12 88 L50 70 L88 88 V98 L50 80 L12 98 Z" fill="none" stroke="#efe9dd" stroke-width="4" stroke-linejoin="round"/><path d="M12 52 L50 34 L88 52 V62 L50 44 L12 62 Z M12 70 L50 52 L88 70 V80 L50 62 L12 80 Z M12 88 L50 70 L88 88 V98 L50 80 L12 98 Z" fill="url(#burgee-3uubv8)" fill-rule="evenodd"/><clipPath id="burgee-3uubv8-c"><path d="M12 52 L50 34 L88 52 V62 L50 44 L12 62 Z M12 70 L50 52 L88 70 V80 L50 62 L12 80 Z M12 88 L50 70 L88 88 V98 L50 80 L12 98 Z"/></clipPath><linearGradient id="burgee-3uubv8-s" gradientUnits="objectBoundingBox" x1="0" y1="0" x2="1" y2="0"><stop offset="0" stop-color="#ffffff" stop-opacity="0"/><stop offset="0.50" stop-color="#ffffff" stop-opacity="0.16"/><stop offset="1" stop-color="#ffffff" stop-opacity="0"/></linearGradient><g clip-path="url(#burgee-3uubv8-c)"><g transform="skewX(-14)"><rect x="-50" y="-20" width="34" height="140" class="burgee-3uubv8-sweep" fill="url(#burgee-3uubv8-s)"/></g></g><g clip-path="url(#burgee-3uubv8-c)"><path d="M12 52 L50 34 L88 52 V62 L50 44 L12 62 Z M12 70 L50 52 L88 70 V80 L50 62 L12 80 Z M12 88 L50 70 L88 88 V98 L50 80 L12 98 Z" fill="none" stroke="#ffffff" stroke-opacity="0.28" stroke-width="1.5" stroke-linejoin="round" transform="translate(-0.55 -0.55)"/><path d="M12 52 L50 34 L88 52 V62 L50 44 L12 62 Z M12 70 L50 52 L88 70 V80 L50 62 L12 80 Z M12 88 L50 70 L88 88 V98 L50 80 L12 98 Z" fill="none" stroke="#000000" stroke-opacity="0.13" stroke-width="1.5" stroke-linejoin="round" transform="translate(0.55 0.55)"/></g><g transform="translate(22 30) scale(0.40)"><g transform="translate(28.00 -75.00)"><g transform="translate(8 16) scale(0.68)"><g transform="rotate(-30 50 50)"><rect x="15" y="24" width="52" height="24" rx="12" fill="#f4794a"/><rect x="33" y="52" width="52" height="24" rx="12" fill="#0d9460"/></g></g></g></g>
</svg>
